<svg style="position: absolute; width: 0; height: 0;" width="0" height="0" version="1.1" xmlns="http://www.w3.org/2000/svg" xmlns:xlink="http://www.w3.org/1999/xlink"><defs><symbol id="x" viewBox="0 -128 1024 1024"><path d="M281 315 l438 0 l0 -97 l133 0 q30 0 49.5 9 q19.5 9 31.5 22.5 q12 13.5 17 29.5 q5 16 5 29 l1 89 l-912 0 l0 -76 q0 -26 9 -45.5 q9 -19.5 23 -32 q14 -12.5 32.5 -18.5 q18.5 -6 36.5 -6 l83 0 q26 0 53 -1 l0 97 ZM44 451 l0 167 q0 14 4 30 q4 16 13.5 29.5 q9.5 13.5 25.5 23 q16 9.5 41 10 q25 0.5 45 0.5 l63 0 l44 -128 l439 0 l45 128 l62 0 q15 1 29 0.5 q14 -0.5 31.5 -5 q17.5 -4.5 33 -16 q15.5 -11.5 26 -30 q10.5 -18.5 10.5 -47.5 l-1 -110 l0 -52 l-911 0 ZM163 514 q13 0 22 8.5 q9 8.5 9 21.5 q0 13 -9 21.5 q-9 8.5 -21.5 8.5 q-12.5 0 -21.5 -8.5 q-9 -8.5 -9 -21.5 q0 -13 9 -21.5 q9 -8.5 21 -8.5 ZM684 638 q6 20 11 38 q5 18 9.5 35.5 q4.5 17.5 9.5 30.5 q9 26 -2 38 q-11 12 -34 12 l-365 0 q-14 0 -21.5 -4 q-7.5 -4 -9.5 -10.5 q-2 -6.5 -1 -14.5 q1 -8 3 -15 l8 -25 q5 -18 10 -37 q6 -22 14 -48 l368 0 ZM663 263 l0 -227 q0 -38 -20.5 -52.5 q-20.5 -14.5 -51.5 -14.5 l-188 0 q-21 0 -34 6 q-13 6 -20.5 15.5 q-7.5 9.5 -10 21.5 q-2.5 12 -2.5 23 l0 228 l327 0 Z"></path></symbol><symbol id="cq" viewBox="0 -128 1024 1024"><path d="M362 643 q1 0 37 1 l113 0 q112 0 135.5 -0.5 q23.5 -0.5 23.5 -4.5 q7 -6 9 -18 q0 -3 -2.5 -12 q-2.5 -9 -13.5 -43 l-17 -50 q-1 -1 8 -8 q51 -33 77 -83 q5 -10 8 -19.5 q3 -9.5 6 -23.5 q3 -9 3.5 -14.5 q0.5 -5.5 0.5 -12.5 q0 -7 -0.5 -9.5 q-0.5 -2.5 -2.5 -5 q-2 -2.5 -5 -5.5 q-2 -1 -12 -1 l-113 -1 l-20 -97 q-15 -71 -19.5 -88 q-4.5 -17 -9.5 -18 q-3 -3 -12 -4 q-9 -1 -43 -1 q-34 0 -43 1 q-9 1 -13 4 q-4 1 -8.5 17.5 q-4.5 16.5 -20.5 89.5 l-21 95 l-60 1 q-49 1 -59.5 2 q-10.5 1 -12 6 q-1.5 5 -1.5 15 q0 10 2 20 q4 19 11.5 37 q7.5 18 16.5 31 q12 19 29.5 35.5 q17.5 16.5 37.5 29.5 q6 4 6 5.5 q0 1.5 -4 14.5 l-23 68 q-4 15 -5 18 q-1 21 17 28 ZM645 611 q2 0 -27 1 l-239 0 l29 -83 l7 3 q9 4 21 7 q12 3 22 5 q15 4 29 5 q14 1 32 1 q22 -1 40.5 -4 q18.5 -3 40.5 -11 l12 -3 q5 -2 5 -1 l24 67 q3 12 4 13 Z"></path></symbol><symbol id="cq1" viewBox="0 -128 1024 1024"><path d="M403 664 q-2 0 21 1 l199 0 l-30 -147 l-158 0 l-16 73 q-14 63 -16 73 ZM592 642 q2 1 -11 2 l-131 0 q-16 -1 -15 -1 l8 -38 l141 0 l4 19 q3 15 4 18 ZM577 572 q2 1 -9 2 l-109 0 q-11 -1 -9 -2 l8 -31 q-1 -1 8 -2 l104 0 l6 27 q1 5 1 6 ZM438 489 l150 0 l-15 -72 l-119 0 l-13 58 q-2 10 -2 11 l-1 3 ZM416 482 l6 -27 q-1 -1 -13 -8 q-11 -5 -22 -12 q-11 -7 -19 -13 l-6 -5 l-41 0 l7 7 q15 16 36.5 30.5 q21.5 14.5 43.5 24.5 l8 3 ZM606 469 q2 9 2.5 11 q0.5 2 2.5 1 q4 -1 18.5 -8.5 q14.5 -7.5 22.5 -11.5 q10 -7 21 -15.5 q11 -8.5 20 -17 q9 -8.5 9.5 -9.5 q0.5 -1 -5.5 -2 l-35 0 l-9 7 q-19 14 -39 24 q-10 5 -10.5 7 q-0.5 2 2.5 14 ZM298 388 l430 0 l10 -17 q4 -7 5 -7.5 q1 -0.5 -51 -1.5 l-359 0 q-52 1 -51 1.5 q1 0.5 5 7.5 q4 7 9 15 l2 2 ZM468 330 q-1 1 6 2 l83 0 l-19 -79 l-51 0 l-16 65 q-2 11 -3 12 ZM487 244 q0 4 2 -1.5 q2 -5.5 4.5 -9.5 q2.5 -4 7.5 -8 q10 -9 30 -17 q14 -6 22 -14 q5 -7 9 -16 q4 -9 4 -16 l0 -4 l-6 6 q-5 5 -11 8.5 q-6 3.5 -17.5 8 q-11.5 4.5 -18 8 q-6.5 3.5 -11.5 9.5 q-10 10 -13 22 q-2 5 -2.5 12.5 q-0.5 7.5 0.5 11.5 Z"></path></symbol><symbol id="gx" viewBox="0 -128 1024 1024"><path d="M447 647.33 q25 1 77.5 0.5 q52.5 -0.5 75.5 -1.5 q27 -1 57.5 -4 q30.5 -3 33.5 -3 q0 -1 -4 -3.5 q-4 -2.5 -10 -4.5 l-18 -5 l-24 -6 q-13 -3 -14 -4 q-1 -1 5 -3 q6 -2 14.5 -4 q8.5 -2 21.5 -3.5 q13 -1.5 39 -1.5 l36 -1 l-16 -28 l-6 1 q-13 2 -46 4 l-17 1 l-13 1 q-17 3 -44.5 3.5 q-27.5 0.5 -81.5 -1.5 q-25 -1 -45.5 -0.5 q-20.5 0.5 -21 1.5 q-0.5 1 6 3.5 q6.5 2.5 12.5 3.5 q11 3 40 6 q12 2 15 2.5 q3 0.5 -2 1.5 q-7 1 -22.5 0.5 q-15.5 -0.5 -30.5 -1.5 l-22 -2 l-105 -5 l-23 0 q-15 0 -24 0.5 q-9 0.5 -24 2.5 q-12 1 -38 -2 q-11 -1 -21 -1 q-10 0 -16 2 q-6 2 -10 3.5 q-4 1.5 -3 2 q1 0.5 13 1.5 l34 4 q22 3 35.5 4 q13.5 1 22.5 0 l10 0 q1 0 0 2.5 q-1 2.5 -1 6.5 q0 4 2.5 7.5 q2.5 3.5 7 5 q4.5 1.5 18.5 2.5 l99 10 q18 2 27 2 ZM596 568.33 q-1 4 2 4.5 q3 0.5 23 -1.5 q24 -2 39.5 -6 q15.5 -4 27.5 -11 q12 -7 5.5 -7.5 q-6.5 -0.5 -22 1.5 q-15.5 2 -36.5 7 l-38 8 l-1 5 ZM271 570.33 q2 1 22 0.5 q20 -0.5 36 -2.5 q62 -8 107 -38 l13 -8 q2 -2 1 6 q-1 8 0 8 q1 0 8 -5.5 q7 -5.5 11 -9.5 q4 -4 9 -4 q13 -2 45 -13 l21 -6 q1 1 -1 7 q-2 6 -1 7 q1 1 9 0 q22 -5 54.5 -6 q32.5 -1 101.5 -1 q62 0 80 1 q18 1 30 4 q6 2 6.5 1 q0.5 -1 -0.5 -10 l-3 -16 q-1 -6 -5 -5.5 q-4 0.5 -15 3 q-11 2.5 -30 8.5 q-1 0 -2 -2 l-1 -11 q-5 -33 -10.5 -50.5 q-5.5 -17.5 -15.5 -27.5 q-7 -8 -17 -10 q-10 -2 -19 1 q-1 1 -6 5 l-10 10 q-12 11 -21 18.5 q-9 7.5 -16.5 12 q-7.5 4.5 -15.5 7.5 q-8 3 -13 4 l-4 1 l1 -5 q1 -7 4.5 -20.5 q3.5 -13.5 8.5 -29.5 q8 -24 11 -38.5 q3 -14.5 3 -24.5 q0 -10 -4 -20.5 q-4 -10.5 -13 -24.5 l-16 -29 q-9 -18 -13.5 -24.5 q-4.5 -6.5 -8.5 -9.5 q-9 -6 -20 -6 q-6 0 -10.5 2 q-4.5 2 -10.5 8.5 q-6 6.5 -12 15.5 q-6 9 -15 26 q-14 28 -21 37.5 q-7 9.5 -20 18.5 q-13 9 -20 15.5 q-7 6.5 -14 17.5 q-5 7 -12 20 l-34 69 l-8 14 q-8 12 -13 16 q-5 4 -12 2 q-13 -2 -21 2 q-8 4 -20 19 l-9 10 l-61 33 l-28 16 q-5 3 -4 3.5 q1 0.5 17 -1 q16 -1.5 29 -3.5 q7 -2 7.5 -1 q0.5 1 -5.5 7 q-4 5 -4 6 Z"></path></symbol><symbol id="bj" viewBox="0 -128 1024 1024"><path d="M294 669.15 l438 0 l-1 -91 q0 -11 -1 -11 q-3 -4 -17.5 -9.5 q-14.5 -5.5 -32 -9.5 q-17.5 -4 -44 -5.5 q-26.5 -1.5 -84.5 -2.5 q-87 0 -126.5 3.5 q-39.5 3.5 -78 9.5 q-38.5 6 -45.5 10 q-5 2 -6.5 13.5 q-1.5 11.5 -1.5 49.5 l0 43 ZM233 561.15 l3 -4 q5 -7 23.5 -13 q18.5 -6 47.5 -10 q37 -6 81.5 -8 q44.5 -2 123.5 -2 q95 0 151 4 q56 4 92 13 q12 3 19.5 6.5 q7.5 3.5 12.5 7.5 l5 5 q0 0 2 -4 q2 -4 2 -6 q0 -6 -14 -11 l-70 -29 l-1 -6 q-1 -6 -3.5 -9 q-2.5 -3 -2.5 -5 l0 -7 q0 -6 -2.5 -9 q-2.5 -3 -9.5 -6 q-20 -9 -42 -14.5 q-22 -5.5 -52 -8.5 q-22 -1 -71.5 -1.5 q-49.5 -0.5 -75.5 0.5 q-73 4 -109 19 q-14 5 -19 9.5 q-5 4.5 -5 12.5 q0 5 -0.5 6.5 q-0.5 1.5 -3 4 q-2.5 2.5 -2.5 8.5 l0 6 l-34 13 q-34 14 -41.5 18 q-7.5 4 -7.5 6 q-3 5 1 11 l2 3 ZM273 465.15 q4 6 3 0 q-2 -4 2 -8 q4 -4 14 -7.5 q10 -3.5 31 -8.5 q14 -4 42 -7 q28 -3 66 -6 q27 -1 72 -1.5 q45 -0.5 72 1.5 l66 4 l28 3 q19 2 39.5 6.5 q20.5 4.5 30.5 9.5 q4 2 8 5.5 q4 3.5 4.5 6.5 q0.5 3 2.5 -2 q1 -7 -6 -15 q-4 -5 -10.5 -8 q-6.5 -3 -20 -6.5 q-13.5 -3.5 -21.5 -6.5 l-51 -19 l-2 -17 l0 -9 q0 -8 -1.5 -12 q-1.5 -4 -6.5 -8 q-12 -9 -31.5 -14 q-19.5 -5 -50.5 -7 l-16 -1 l-1 -33 l-47 0 l0 33 l-50 5 q-15 2 -22 4 q-7 2 -15 6 q-8 4 -12.5 7.5 q-4.5 3.5 -6 8 q-1.5 4.5 -1 11.5 q0.5 7 0 9.5 q-0.5 2.5 -2.5 7.5 l-3 8 l-7 3 q-17 8 -38 15.5 q-21 7.5 -34 10.5 q-8 2 -12.5 4 q-4.5 2 -7.5 6 q-12 12 -5 21 ZM532 365.15 l-39 0 l0 -55 l39 0 l0 27 l0 28 ZM336 342.15 q-2 3 9 -5 q6 -5 11 -8 q5 -3 13 -6 q30 -12 70.5 -18 q40.5 -6 88.5 -5 q36 1 64 5.5 q28 4.5 55 13.5 q24 7 37 20 q7 6 1.5 -4 q-5.5 -10 -48.5 -28 q-26 -11 -48 -25 q-22 -14 -36 -28 q-9 -9 -12 -14.5 q-3 -5.5 -3.5 -14 q-0.5 -8.5 -1.5 -12 q-1 -3.5 -4.5 -5.5 q-3.5 -2 -8.5 -3 q-9 1 -4 -12 q8 -25 -12 -23 q-15 1 -8 23 q4 12 -3 14 q-4 2 -5.5 5 q-1.5 3 -3 10.5 q-1.5 7.5 -1 11.5 q0.5 4 -6.5 11 q-29 36 -98 65 q-17 7 -26.5 13 q-9.5 6 -14 12 q-4.5 6 -5.5 7 Z"></path></symbol><symbol id="bjsc" viewBox="0 -128 1024 1024"><path d="M431 546 q6 4 12 0 l69 -111 l70 111 q4 3 9 1.5 q5 -1.5 5 -6.5 q0 -2 -8 -15 l-65 -105 q1 -2 6 -11 q5 -9 7 -11 q2 0 14 8 l15 9 q0 0 3 -5 l18 -26 q3 1 15.5 9 q12.5 8 14.5 10 l-17 29 q-2 3 -1 3 q4 4 17.5 12 q13.5 8 15.5 9 l20 -30 q3 0 16 8 q13 8 15 10 q-1 3 -9 16 l-6 10 q-3 5 -2 6.5 q1 1.5 12 9 q11 7.5 15.5 8.5 q4.5 1 8 -3 q3.5 -4 10 -15 q6.5 -11 7.5 -13 l-32 -20 l19 -29 q2 -1 15 8 l11 6 q5 3 6.5 3 q1.5 0 11.5 -16 l10 -17 q0 0 -5 -3 l-11 -8 q-16 -10 -15 -11 q2 -3 10 -15 q8 -12 9 -14 l32 19 q1 -1 9 -14 q6 -8 7.5 -11.5 q1.5 -3.5 1.5 -7 q0 -3.5 -3 -5.5 q-3 -2 -14 -9 q-11 -7 -13 -8 l-3 4 l-17 27 q-3 0 -16.5 -8.5 q-13.5 -8.5 -14.5 -10.5 l16 -27 l3 -5 l-5 -4 l-29 -18 l-15 24 q-5 7 -6.5 7 q-1.5 0 -11.5 -6 l-17 -11 q-2 0 -0.5 -3 q1.5 -3 7.5 -13 l7 -11 q3 -5 3 -6.5 q0 -1.5 -14 -9.5 q-9 -6 -11.5 -8 q-2.5 -2 -1.5 -4 q0 -5 -4.5 -7 q-4.5 -2 -8.5 0 q-2 2 -18 27 l-97 154 q-1 0 -16 -24 l-96 -152 q-3 -4 -4 -5 q-1 -1 -4 -1 q-9 1 -9 8 q1 2 -1 4 q-2 2 -11 7 l-15 9 q-1 1 1 4 l18 30 l-26 16 l-5 3 q0 0 -3 -5 l-18 -27 l-29 18 l-5 4 q0 1 5 9 l15 24 l-31 19 l-18 -27 l-3 -5 q-2 1 -13.5 8 q-11.5 7 -14 9 q-2.5 2 -2.5 5.5 q0 3.5 1.5 7 q1.5 3.5 6.5 10.5 q8 12 9.5 13 q1.5 1 6.5 -2 l26 -15 q1 2 9 13.5 q8 11.5 9 15.5 q2 1 -14.5 11.5 q-16.5 10.5 -15.5 11.5 l11 17 q9 15 11 15 l6 -3 l26 -16 l19 31 l-32 20 q1 2 8 13.5 q7 11.5 10 15 q3 3.5 7.5 2.5 q4.5 -1 14.5 -8 l14 -9 q1 -2 -8 -16 l-10 -17 q2 -2 15 -10 q13 -8 16 -8 l16 25 l4 5 q2 -1 15.5 -9 q13.5 -8 17.5 -11 q1 -1 -1 -5 l-18 -28 l31 -19 l11 16 q9 14 11 15 l27 -17 q2 0 7.5 9 q5.5 9 6.5 12 l-36 59 q-36 57 -36.5 60.5 q-0.5 3.5 1.5 6.5 ZM374 422 l-19 -30 q1 -1 12 -8 q11 -7 17 -11 q1 -1 3 1.5 q2 2.5 8 12.5 l9 15 q0 1 -4 4 q-4 3 -11 7 l-15 9 ZM651 422 q-3 -1 -15.5 -9.5 q-12.5 -8.5 -14.5 -10.5 q1 -3 9.5 -15.5 q8.5 -12.5 9.5 -13.5 l30 19 l-3 4 q-2 5 -6 11 l-10 15 ZM321 409 q-1 0 -10 -14 l-9 -15 q0 -1 4 -4 l23 -14 q3 -2 3 -1 l19 29 l-4 3 q-4 3 -10 7 l-16 9 ZM705 409 q-2 0 -14.5 -7.5 q-12.5 -7.5 -15.5 -10.5 q0 -2 7 -14 q7 -12 10 -16 q1 -1 4 1 l27 17 q0 2 -8 15 l-10 15 ZM440 381 l-16 -25 q-3 -6 -2 -6.5 q1 -0.5 12.5 -8 q11.5 -7.5 13.5 -8.5 l19 30 q-1 1 -5 4 l-22 14 ZM585 380 q-2 0 -12.5 -6.5 q-10.5 -6.5 -13.5 -9.5 q-2 0 8 -16 l10 -15 q1 0 14.5 8.5 q13.5 8.5 11.5 9.5 l-2 5 q-3 4 -7 10 l-9 14 ZM386 369 l-19 -32 l31 -19 l16 27 q3 4 3 4 l-31 20 ZM639 368 q-2 0 -14 -8 l-16 -10 q-1 0 1 -4 l7 -12 l7 -11 q3 -4 4 -4 l30 18 l-3 5 q-2 4 -6 11 l-10 15 ZM333 356 q-2 -2 -10 -14 l-9 -16 q1 -2 13.5 -10 q12.5 -8 15.5 -9 q3 2 11 14.5 q8 12.5 9 15.5 l-4 3 q-5 3 -11 7 l-15 9 ZM692 356 q-3 -1 -15.5 -9.5 q-12.5 -8.5 -14.5 -9.5 q1 -3 9 -15.5 q8 -12.5 10 -14.5 q4 1 16.5 9.5 q12.5 8.5 13.5 9.5 l-3 5 q-2 5 -6 11 l-10 14 ZM399 315 l-10 -15 l-9 -16 q1 -1 12.5 -8.5 q11.5 -7.5 13.5 -8.5 l10 15 l8 13 q2 3 0.5 4 q-1.5 1 -13.5 8 l-12 8 ZM630 309 q-3 4 -4.5 4 q-1.5 0 -12 -6 q-10.5 -6 -13.5 -9 q-1 -1 8 -15 l10 -15 q2 0 13.5 7 q11.5 7 14.5 9 l-3 5 q-2 4 -6 10 l-7 10 Z"></path></symbol><symbol id="ft" viewBox="0 -128 1024 1024"><path d="M671 590.75 q14 1 17 -2 q1 0 2 -17 q1 -13 2.5 -21.5 q1.5 -8.5 6 -18 q4.5 -9.5 13.5 -23.5 q9 -14 32 -46 l19 -27 q9 -15 10.5 -30 q1.5 -15 -4.5 -22 q-10 -9 -36.5 -6 q-26.5 3 -63.5 18 q-17 6 -36.5 15.5 q-19.5 9.5 -51.5 26.5 q-63 34 -113 56 q-50 22 -103 40 q-19 7 -39 13 l-85 24 q0 0 1 5 l3 10 l24 -10 q29 -11 58 -14 q29 -3 67 1 q43 5 72 7 q19 1 33.5 -1.5 q14.5 -2.5 28.5 -9.5 q21 -9 16 -23 q-2 -9 -7 -11 q-5 -2 -13 2 q-8 4 -9 12 q0 5 -1.5 5 q-1.5 0 -4.5 -4 q-3 -4 -4 -7 q-3 -10 6.5 -22.5 q9.5 -12.5 25.5 -18.5 q12 -4 26 -3 q14 1 24 7 q5 3 10.5 8.5 q5.5 5.5 8.5 9.5 q7 15 4 37 q-4 15 8 3 q6 -6 11.5 -8.5 q5.5 -2.5 11.5 -3.5 q6 -1 10 -1 q6 2 10.5 6.5 q4.5 4.5 4.5 10.5 q0 9 -3 5 q-4 -7 -13 -4 q-5 3 -5 11 q0 8 7.5 14 q7.5 6 18.5 7 ZM286 553.75 q-1 3 14 -1 q51 -15 138.5 -54.5 q87.5 -39.5 134.5 -68.5 q11 -8 12 -9 l-22 -23 q-17 -18 -22.5 -21.5 q-5.5 -3.5 -11.5 0.5 l-223 123 q-14 8 -17 17 l-1 19 q-1 15 -2 18 ZM364 513.75 q-9 4 -6 2 l88 -45 l75 -37 q16 -8 17 -7 q3 1 4.5 2 q1.5 1 -9.5 7 q-11 6 -37 18 l-39 17 q-24 11 -43 20 l-50 23 ZM367 496.75 q-3 1 6 -3 l62 -34 q52 -28 71.5 -38 q19.5 -10 20.5 -9 q-1 4 -52 31 q-51 27 -94 47 l-14 6 ZM406 460.75 q-9 5 -3 1 l23 -14 q33 -20 59.5 -34.5 q26.5 -14.5 29.5 -15.5 q1 0 1.5 1.5 q0.5 1.5 -15.5 10.5 l-37 20 q-22 13 -39 22 l-19 9 ZM310 487.75 q1 1 3 1 q4 -2 26 -14.5 q22 -12.5 27 -16.5 q4 -2 -2 -11 q-4 -6 -7 -8 q-3 -2 -6.5 -1.5 q-3.5 0.5 -9 3.5 q-5.5 3 -18.5 13 q-11 7 -14 11.5 q-3 4.5 -2 12.5 q1 8 3 9 l0 1 ZM674 312.75 l4 -7 q4 -6 10 -11.5 q6 -5.5 10.5 -8.5 q4.5 -3 10.5 -4.5 q6 -1.5 11 -1.5 q5 0 13 2 q8 2 14.5 5.5 q6.5 3.5 7 3 q0.5 -0.5 -1.5 -4 q-2 -3.5 -5 -6.5 q-9 -7 -20 -11 q-4 -1 -8 -1.5 q-4 -0.5 -10.5 -0.5 q-6.5 0 -10 1 q-3.5 1 -7.5 3 q-13 6 -21 16 l-3 5 l-6 -4 q-11 -6 -20 -4.5 q-9 1.5 -15 9.5 q-5 6 -3.5 7.5 q1.5 1.5 7 -1.5 q5.5 -3 10 -3.5 q4.5 -0.5 7 0 q2.5 0.5 6.5 2.5 q7 4 14 9 l6 6 Z"></path></symbol><symbol id="hn" viewBox="0 -128 1024 1024"><path d="M289 611 l0 25 l455 0 l0 -51 l-39 0 l0 -24 l-43 0 l0 -12 l-14 0 l0 -90 l18 -3 q12 -3 24.5 -7 q12.5 -4 21.5 -8 q15 -7 23.5 -15.5 q8.5 -8.5 8.5 -16.5 l0 -3 l-6 2 q-3 2 -7 2 q-4 0 -13 0 q-14 1 -28 -1.5 q-14 -2.5 -35 -7.5 l-8 -2 l0 -52 l11 -3 q36 -13 49 -35 q2 -4 3.5 -9 q1.5 -5 1 -6 q-0.5 -1 -5 1 q-4.5 2 -16.5 1.5 q-12 -0.5 -26 -3.5 l-11 -3 l-7 -2 q-6 -3 -12 -10 q-6 -7 -10 -15 q-4 -8 -5.5 -16 q-1.5 -8 -1.5 -20 l0 -14 l-3 2 q-8 4 -23.5 8 q-15.5 4 -31.5 6 q-39 5 -75 1.5 q-36 -3.5 -58 -13.5 q-8 -4 -8.5 -3.5 q-0.5 0.5 0.5 9.5 q1 11 -1 23 q-2 12 -8 22 q-3 6 -9 12 q-6 6 -10.5 8 q-4.5 2 -19 5 q-14.5 3 -23.5 4 q-12 1 -21 -3 q-3 -3 -2 4 q2 13 16.5 25.5 q14.5 12.5 38.5 20.5 l9 3 l0 52 l-8 2 q-10 3 -21.5 5 q-11.5 2 -22.5 4 q-28 3 -43 -4 q-2 -1 -2 2 q0 11 15.5 22.5 q15.5 11.5 40.5 19.5 q8 3 20 5.5 q12 2.5 16 2.5 l2 0 l0 91 l-15 0 l0 12 l-43 0 l0 24 l-38 0 l0 25 l0 1 ZM560 549 l-87 0 l0 -56 l87 0 l0 28 l0 28 ZM433 520 l-16 0 l0 -23 l16 0 l0 11 l0 12 ZM621 520 l-16 0 l0 -23 l16 0 l0 11 l0 12 ZM650 452 q-25 1 -134.5 1 q-109.5 0 -133.5 -1 q-55 -5 -77 -26 q-7 -7 -10 -11 l-2 -5 l5 5 q6 6 15 10 q9 4 23 8.5 q14 4.5 41.5 5.5 q27.5 1 140.5 0 l123 0 q28 0 33 -1 q46 -7 63 -22 q7 -7 1 1 q-20 29 -88 35 ZM434 383 l-17 0 l0 -23 l17 0 l0 11 l0 12 ZM481 383 l-17 0 l0 -23 l17 0 l0 11 l0 12 ZM528 383 l-17 0 l0 -23 l17 0 l0 11 l0 12 ZM574 383 l-16 0 l0 -23 l16 0 l0 11 l0 12 ZM621 383 l-16 0 l0 -23 l16 0 l0 11 l0 12 ZM642 340 q-4 1 -26 1 l-173 0 q-33 0 -39 0 q-59 -6 -76 -37 q-2 -3 4 2 q15 13 43 19 q12 3 38.5 3.5 q26.5 0.5 113.5 0.5 l97 -1 q23 0 27 -1 q36 -7 52 -21 q7 -6 4 -1 q-14 26 -65 35 Z"></path></symbol><symbol id="bjsc1" viewBox="0 -128 1024 1024"><path d="M461 521 q8 2 16 -2 q18 -12 20 -46.5 q2 -34.5 -13 -62.5 q-4 -6 -8 -11 q-4 -5 -7.5 -6.5 q-3.5 -1.5 -8.5 -2.5 q-19 0 -28 26.5 q-9 26.5 -1 61.5 q5 17 13 28.5 q8 11.5 17 14.5 ZM476 498 q-10 7 -20 -2 q-10 -9 -14 -29 q-3 -17 -0.5 -31.5 q2.5 -14.5 10.5 -22.5 q3 -2 4.5 -2.5 q1.5 -0.5 6 0 q4.5 0.5 7.5 2.5 q3 2 7 8 q4 6 6 12 q7 19 4.5 38 q-2.5 19 -11.5 27 ZM604 502 q12 1 48 0.5 q36 -0.5 55 -1.5 q54 -3 73 -7.5 q19 -4.5 21 -14.5 l1 -22 q1 -12 0.5 -16 q-0.5 -4 -2.5 -7 q-2 -5 -6 -11 l-11 -14 l0 6 q0 7 -3 6.5 q-3 -0.5 -6 -2 q-3 -1.5 -4.5 -2 q-1.5 -0.5 -4.5 0.5 q-17 4 -49 5.5 q-32 1.5 -55 -1.5 l-19 -1 l-63 -2 l-13 -3 q-19 -6 -29 -10 q-10 -4 -12 -7 q-8 -8 -12 -30 l-1 -3 l5 0 q13 2 -19 -9 q-20 -7 -34 -9 q-14 -2 -32 -2 l-24 0 q-7 1 -6 3 q-2 5 -9.5 6.5 q-7.5 1.5 -22 -2 q-14.5 -3.5 -26.5 -9.5 q-8 -5 -16.5 -13.5 q-8.5 -8.5 -11.5 -14.5 l-3 -6 l-6 0 q-6 0 -11 4 q-4 3 -6.5 3.5 q-2.5 0.5 -7.5 0.5 q-13 0 -18.5 5 q-5.5 5 -8.5 13.5 q-3 8.5 -3 17.5 q0 6 5 -1 q3 -5 6 -6.5 q3 -1.5 4.5 -1.5 q1.5 0 3.5 2 q8 5 14 28 q5 21 1 10 q-4 -11 -10 -16 q-3 -3 -4.5 -3.5 q-1.5 -0.5 -4.5 -0.5 q-12 2 -18 24 q-2 9 -2 22.5 q0 13.5 2 22.5 q5 19 13 26 q8 7 16 -1 q12 -11 12 -43 l0 -14 l2 8 q1 8 2 8.5 q1 0.5 5.5 -2 q4.5 -2.5 8.5 -6.5 q4 -4 6 -8.5 q2 -4.5 4 -6 q2 -1.5 4 -1.5 l7 1 q9 2 14 6 q12 10 36 15 q10 3 22.5 5 q12.5 2 19.5 2 l5 0 l1 -8 q5 -26 21 -30 q9 -3 17 0 q8 3 18 13 q10 10 14 18 q4 8 7 27 q2 11 2.5 17.5 q0.5 6.5 0.5 15.5 l0 14 q0 4 -1 6 l-2 3 l80 2 q15 1 20 1 ZM278 445 q-6 6 -11 0.5 q-5 -5.5 -8 -19 q-3 -13.5 -1 -26.5 q2 -13 8 -17.5 q6 -4.5 11 0.5 q10 10 9 35 q-1 20 -8 27 ZM421 480 q5 2 6 2 q1 0 1 -2 q-6 -18 -6 -43 l0 -9 l-11 0 q-12 -1 -24.5 -3.5 q-12.5 -2.5 -31.5 -9.5 l-26 -7 q-2 0 -8.5 7.5 q-6.5 7.5 -14.5 18.5 l-9 13 l6 1 q12 2 52.5 13 q40.5 11 65.5 19 ZM628 412 q37 1 67.5 0.5 q30.5 -0.5 40 -2 q9.5 -1.5 18 -3.5 q8.5 -2 9 -3.5 q0.5 -1.5 -5 -10.5 q-5.5 -9 -9.5 -16.5 q-4 -7.5 -4.5 -11 q-0.5 -3.5 4 -3 q4.5 0.5 -1.5 -3.5 q-18 -12 -65 -14 l-14 -1 l-24 -3 l-6 -6 q-27 -25 -63 -42 q-36 -17 -73 -21 q-13 -1 -33.5 -1.5 q-20.5 -0.5 -37.5 0.5 q-82 4 -108 25 q-4 3 -7 7.5 q-3 4.5 -2.5 5 q0.5 0.5 6.5 -4.5 q9 -8 24 -13.5 q15 -5.5 30 -5.5 l11 -1 l17 58 l7 0 q7 0 7 -1 l-17 -58 q0 -2 2 -2 q2 0 1 0.5 q-1 0.5 1 7.5 l18 52 l9 0 l19 -1 q61 -4 106 -4.5 q45 -0.5 67 2.5 l8 2 l-13 -1 q-48 -2 -70 -1.5 q-22 0.5 -57 2.5 l-23 2 q-8 0 10 3 q34 8 65.5 23 q31.5 15 56.5 37 l8 7 l22 0 ZM632 341 q-3 0 -3.5 -2 q-0.5 -2 -11.5 -10.5 q-11 -8.5 -23 -15.5 q-35 -22 -71 -32 l-14 -4 l-79 0 q-6 0 0 -1 q10 -1 27 -1.5 q17 -0.5 32 0.5 q11 0 17 1 q6 1 14 3 q22 6 43 15.5 q21 9.5 40 22.5 q10 6 20.5 14 q10.5 8 11.5 10 l-3 0 ZM379 352 q8 1 13 -0.5 q5 -1.5 6 -5.5 l-2 -9 l-12 -50 l-5 0 q-6 0 -15.5 1 q-9.5 1 -15.5 3 q-16 5 -26 15 q-5 5 -5 6.5 q0 1.5 4.5 7.5 q4.5 6 8.5 10 q7 6 22 13 q15 7 27 9 Z"></path></symbol><symbol id="gz" viewBox="0 -128 1024 1024"><path d="M642 650.67 l11 -8 q13 -8 20 -14 q7 -6 16 -15 q55 -53 70 -129 q2 -15 2.5 -34.5 q0.5 -19.5 -1.5 -35.5 q-5 -40 -23.5 -77 q-18.5 -37 -47.5 -66 q-53 -51 -134 -64 q-13 -2 -36 -2.5 q-23 -0.5 -38 0.5 q-40 4 -75.5 18.5 q-35.5 14.5 -63.5 36.5 q-34 29 -55 68 q-21 39 -27 84 q-2 12 -2 29.5 q0 17.5 1 29.5 q12 83 73 144 q10 9 21 17.5 q11 8.5 15 11.5 q2 0 13 1 l78 1 l0 -5 q2 -12 10 -20 q8 -8 19 -10 q15 -2 26 6 q11 8 14 25 l1 6 l22 0 q10 1 21 1 l70 1 ZM410 625.67 q0 14 -0.5 16.5 q-0.5 2.5 -4.5 0.5 q-11 -4 -7 -13 l12 -22 l0 18 ZM450 643.67 l-4 -1 q-7 -3 -8 -9 q1 -3 6 -13 l6 -11 l0 17 l0 17 ZM547 638.67 q-2 2 -5 4 l-4 1 l0 -33 l3 5 q5 9 6.5 14 q1.5 5 -0.5 9 ZM572 624.67 q0 15 -1 17.5 q-1 2.5 -5 -0.5 q-8 -2 -8 -6.5 q0 -4.5 7 -15.5 l7 -13 l0 5 q0 5 0 13 ZM384 641.67 q-4 3 -6 -1.5 q-2 -4.5 -2 -16.5 l0 -10 q1 -2 2 0 q2 3 5.5 10.5 q3.5 7.5 3.5 9.5 q0 6 -3 8 ZM425 640.67 q-7 3 -7.5 0.5 q-0.5 -2.5 -0.5 -16.5 l1 -15 l6 12 q4 8 5 11 q1 3 0 5 q-1 2 -4 3 ZM586 640.67 q-5 3 -6 1 q-1 -2 -1 -15 q0 -13 1 -14 q1 2 6 11 q3 7 4 9.5 q1 2.5 0 4.5 q-1 2 -4 3 ZM611 639.67 q-4 5 -8 2 q-2 -2 -3 -4.5 q-1 -2.5 -0.5 -5 q0.5 -2.5 5.5 -11.5 q6 -11 7 -11 q1 0 0.5 14.5 q-0.5 14.5 -1.5 15.5 ZM369 622.67 q0 13 -1 13.5 q-1 0.5 -5 -3.5 l-5 -3 l11 -20 q0 1 0 13 ZM620 635.67 q-1 2 -1 -12 q0 -11 0 -12 l5 9 l5 9 q0 1 -4 3 l-5 3 ZM461 620.67 q-1 3 -3 6 l-2 2 l0 -9 q0 -9 0 -10 l4 4 q3 4 1 7 ZM392 627.67 l-15 -29 l31 0 l-5 10 l-11 19 ZM531 617.67 q0 9 -1 9.5 q-1 0.5 -2.5 -3 q-1.5 -3.5 -1.5 -6 q0 -2.5 3 -6.5 l2 -4 l0 10 ZM352 626.67 l-14 -27 q1 -1 15 -1 l14 0 l-4 8 l-11 20 ZM434 626.67 l-15 -27 q1 -1 15 -1 l12 0 q2 1 1 2.5 q-1 1.5 -7 13.5 l-6 12 ZM554 626.67 l-15 -28 q1 0 14.5 0 q13.5 0 14.5 0 q-1 2 -7 14 l-7 14 ZM604 610.67 q-7 14 -9 14.5 q-2 0.5 -8 -11.5 l-7 -14 q1 -1 15 -1 l15 0 l-6 12 ZM635 626.67 l-15 -28 l15 0 q13 0 14 1 q-1 1 -7 14 l-7 13 ZM484 604.67 q-5 4 -11 7 l-6 3 l-8 -15 l14 0 q12 0 14 0.5 q2 0.5 -3 4.5 ZM520 614.67 l-2 -1 q-2 -2 -9 -5 q-7 -3 -8 -7 l-2 -3 l15 0 q12 0 13 1 q1 1 -4 9 l-3 6 ZM448 592.67 q-1 0 -14.5 0 q-13.5 0 -14.5 -1 l13 -25 q1 -2 2 0 q1 2 7 11 q6 13 7 15 ZM671 590.67 q-2 1 -4.5 1.5 q-2.5 0.5 -4.5 0 q-2 -0.5 6 -14.5 l7 -14 l3 5 q3 5 3 7 q0 2 -4 7 q-4 5 -6 8 ZM326 590.67 q0 1 -3.5 1 q-3.5 0 -5 -1 q-1.5 -1 -6.5 -7 l-5 -7 l1 -4 q3 -7 5 -6.5 q2 0.5 7.5 11.5 q5.5 11 6.5 13 ZM366 590.67 q-1 1 -14 1 q-13 0 -13 -1 q0 -1 6 -13 l6 -11 q1 -2 2 0 l7 13 q5 10 6 11 ZM408 591.67 l-30 0 l11 -20 q3 -6 4 -6.5 q1 -0.5 3 4 q2 4.5 7 13.5 l5 9 ZM487 590.67 q-1 1 -13.5 1 q-12.5 0 -13.5 0 l14 -27 l6 13 q6 12 7 13 ZM527 590.67 q-1 1 -13 1 l-14 0 l13 -27 l7 13 q6 11 7 13 ZM568 590.67 q0 1 -14 1 q-14 0 -14 -1 l14 -26 l7 12 q5 11 7 14 ZM609 591.67 l-14 0 q-14 0 -15 -1 l7 -14 l8 -13 q0 2 7 14 l7 14 ZM650 591.67 l-14 0 q-14 0 -15 0 l10 -18 q3 -8 4.5 -7.5 q1.5 0.5 8.5 13.5 l6 12 ZM455 586.67 q-1 1 -3 -1 l-6 -11 l-7 -14 q1 -1 15 -1 l15 0 l-7 13 l-7 14 ZM495 586.67 q-1 1 -3 -1 l-6 -11 l-7 -14 q1 -1 15 -1 l15 0 l-7 13 l-7 14 ZM534 588.67 l-15 -28 q1 -1 14.5 -1 q13.5 0 14 1 q0.5 1 -3.5 8 l-10 20 ZM373 585.67 q0 2 -2 0 l-14 -26 l15 0 q14 0 14 1 q0 1 -5 12 l-8 13 ZM428 560.67 l-15 27 l-7 -13 q-6 -13 -5.5 -14 q0.5 -1 13.5 -1 l14 1 ZM623 573.67 q-7 13 -8 14 q-1 -1 -8 -14 l-7 -14 l30 0 l-7 14 ZM339 573.67 q-6 12 -7 13 q-1 -1 -8 -13 l-7 -14 l15 0 q13 0 14 1 q-1 1 -7 13 ZM581 573.67 q-6 12 -7 13 q-1 -1 -8 -13 l-7 -13 l14 -1 q13 0 14 1 q1 1 -6 13 ZM664 571.67 q-6 12 -7.5 13.5 q-1.5 1.5 -3.5 -2.5 l-12 -22 q1 -1 15 -1 l14 0 l-6 12 ZM306 559.67 q0 1 -2 6 l-3 4 l-6 -9 l5 -1 q5 0 6 0 ZM692 560.67 l-3 4 q-3 8 -6 -1 q-2 -3 -1.5 -3.5 q0.5 -0.5 5.5 -0.5 l5 1 ZM302 552.67 q-7 2 -10 -1 l-2 -3 l3 0 q8 -1 10.5 1.5 q2.5 2.5 -1.5 2.5 ZM693 552.67 q-2 1 -4 1 l-7 -2 l2 -1 q2 -2 8.5 -2.5 q6.5 -0.5 5 1.5 q-1.5 2 -4.5 3 ZM342 551.67 q1 0 -1 1 l-20 0 q-2 -1 0.5 -3 q2.5 -2 10 -1.5 q7.5 0.5 10.5 3.5 ZM386 551.67 q-1 1 -14 1 q-20 0 -8 -4 q4 -1 12.5 0 q8.5 1 9.5 3 ZM424 551.67 q1 0 -1 1 l-10 0 q-12 0 -12.5 -0.5 q-0.5 -0.5 2.5 -2 q3 -1.5 6.5 -2 q3.5 -0.5 8 0.5 q4.5 1 6.5 3 ZM466 552.67 l-12 0 q-12 0 -13 -2 q-1 -2 13 -2 q5 0 7 0 q2 0 3 2 l2 2 ZM506 551.67 q0 1 -13 1 l-12 0 l2 -3 q2 -1 4 -1.5 q2 -0.5 7 0.5 q12 1 12 3 ZM545 551.67 q2 0 0 1 l-21 0 q-2 -1 -1 -2 q1 -1 6 -2 q9 -2 16 3 ZM587 552.67 q-1 0 -13 0 l-11 0 q-2 0 0 -1.5 q2 -1.5 6.5 -2.5 q4.5 -1 8 -0.5 q3.5 0.5 6.5 2 q3 1.5 3 2.5 ZM627 551.67 q1 0 -1 1 l-22 0 q-2 -1 -1 -2 q1 -1 6 -2 q5 -1 10 0 q5 1 8 3 ZM668 552.67 l-13 0 q-12 0 -13 -1 q1 -3 14 -3 q5 0 7 0 q2 0 3 2 l2 2 ZM323 529.67 q-3 6 -7 10 l-3 4 l-5 -3 q-3 -4 -6 -10 q-3 -6 -4 -11 q-1 -5 2.5 -11 q3.5 -6 6.5 -9 q5 -4 10 0 q2 3 6 10 q4 7 4 10 q0 3 -4 10 ZM359 536.67 q-2 3 -5 5 l-3 2 l-4 -4 q-8 -9 -8.5 -19 q-0.5 -10 6.5 -19 q3 -5 7 -4.5 q4 0.5 6.5 3 q2.5 2.5 6 9 q3.5 6.5 3.5 9 q0 2.5 -3.5 9 q-3.5 6.5 -5.5 9.5 ZM444 530.67 q-4 7 -7 10 l-4 3 l-4 -4 q-16 -15 -7 -32 q7 -14 15 -9 q3 2 7 9.5 q4 7.5 4 11.5 q0 4 -4 11 ZM398 539.67 q-5 4 -10 0 l-6 -8 q-4 -7 -4 -13 q0 -6 6 -15 q6 -9 11 -5.5 q5 3.5 9 9.5 q4 6 4 10 q0 4 -3.5 11.5 q-3.5 7.5 -6.5 10.5 ZM479 539.67 q-2 2 -5.5 2 q-3.5 0 -5.5 -2 q-2 -2 -6 -9 q-6 -11 -4 -15 q2 0 16 3 l15 4 q0 1 -4 8 q-4 7 -6 9 ZM520 539.67 q-4 4 -11 0 q-3 -2 -6.5 -8.5 q-3.5 -6.5 -2 -8 q1.5 -1.5 13.5 -4.5 q9 -2 11.5 -2.5 q2.5 -0.5 3.5 1.5 q3 2 -4 12 q-3 5 -3 6.5 q0 1.5 -2 3.5 ZM559 539.67 q-5 4 -10 0 q-3 -3 -7 -11 l-4 -9 l4 -9 q7 -13 12 -14 q2 0 5 3 q3 3 6.5 8 q3.5 5 3.5 10 q0 5 -3.5 12 q-3.5 7 -6.5 10 ZM571 540.67 q-2 1 -4 1.5 q-2 0.5 2 -6.5 l3 -5 l0 4 q0 5 -1 6 ZM612 536.67 q1 6 -3 5 l-3 0 l6 -10 q0 0 0 5 ZM642 538.67 q-3 3 -6 3 q-3 0 -5 -1.5 q-2 -1.5 -6 -8 q-4 -6.5 -4.5 -11 q-0.5 -4.5 2.5 -10.5 q3 -6 4.5 -8.5 q1.5 -2.5 4.5 -4.5 l3 -2 l5 5 q11 11 9.5 20 q-1.5 9 -7.5 18 ZM601 537.67 q-7 6 -13 0 q-3 -4 -6 -9.5 q-3 -5.5 -2.5 -9.5 q0.5 -4 6 -13 q5.5 -9 8.5 -10 q1 0 5 3.5 q4 3.5 7.5 9.5 q3.5 6 3.5 9.5 q0 3.5 -3.5 10 q-3.5 6.5 -5.5 9.5 ZM682 536.67 q-2 3 -6.5 3 q-4.5 0 -6.5 -1.5 q-2 -1.5 -6 -9.5 q-4 -8 1 -19 q5 -11 10 -13 q4 0 9.5 7 q5.5 7 6.5 13 q0 4 -2 9.5 q-2 5.5 -6 10.5 ZM717 497.67 q1 0 -1 5 l-10 30 l-2 -3 q-8 -9 2 -24 q3 -4 6.5 -6.5 q3.5 -2.5 4.5 -1.5 ZM285 527.67 q-2 3 -3 4 q-2 -2 -7 -16.5 q-5 -14.5 -5 -17.5 q1 0 4.5 0.5 q3.5 0.5 7.5 9.5 q8 13 3 20 ZM521 509.67 q-9 4 -15 3 q-3 0 -12 -5 q-6 -2 -9.5 -5 q-3.5 -3 -8.5 -8 q-11 -11 -16 -22.5 q-5 -11.5 -6 -26.5 q0 -10 1.5 -17.5 q1.5 -7.5 5.5 -15.5 q6 -14 17.5 -24 q11.5 -10 24.5 -15 q6 -1 11 -0.5 q5 0.5 13 5.5 q5 2 9 5 q4 3 9 7 q13 13 18 29 q2 5 2 9.5 q0 4.5 0.5 14 q0.5 9.5 0 14 q-0.5 4.5 -2.5 8.5 q-12 32 -42 44 ZM296 505.67 q-3 5 -4 5 q-1 0 -4 -6 l-3 -6 l7 0 q7 0 6.5 1 q-0.5 1 -2.5 6 ZM336 504.67 q-3 6 -4 6 q-1 0 -4 -6 l-3 -6 l14 0 l-3 6 ZM574 511.67 l-7 -14 l7 0 q6 0 7 1 l-7 13 ZM662 498.67 q0 1 -3 7 l-4 6 l-7 -13 l7 0 q6 0 7 0 ZM699 504.67 q-3 6 -4 6 q-1 0 -4 -6 l-3 -6 l14 0 l-3 6 ZM373 510.67 l-7 -12 q0 -1 6 -1 q6 0 7 1 l-6 12 ZM416 504.67 q-2 5 -3 5 q-1 0 -4 -5 l-3 -6 l7 0 q5 0 5.5 0.5 q0.5 0.5 -2.5 5.5 ZM619 503.67 q-3 6 -4 6 q-1 0 -3 -5 l-3 -6 q1 0 6 0 l6 0 l-2 5 ZM289 493.67 q-5 -2 -9 -5.5 q-4 -3.5 -3.5 -6.5 q0.5 -3 6.5 -14 l6 -12 l0 19 l0 19 ZM329 493.67 q-2 0 -5.5 -2.5 q-3.5 -2.5 -5.5 -4.5 q-4 -3 0 -9 l11 -21 l0 19 l0 18 ZM573 493.67 l-10 -4 l0 -4 q0 -5 5 -18 l5 -14 l0 20 l0 20 ZM692 493.67 q-3 -1 -6 -3 q-3 -2 -5 -3.5 q-2 -1.5 -1 -5.5 q1 -4 6 -13 l6 -12 l0 19 l0 18 ZM370 473.67 q0 15 -0.5 17.5 q-0.5 2.5 -5.5 0.5 q-6 -4 -7 -10 q1 -4 7 -15 l6 -12 l0 19 ZM384 490.67 q-3 3 -6 1 q-1 0 -2 -3 l0 -13 q0 -14 1 -14 q3 4 6 8.5 q3 4.5 4 6.5 q1 8 -3 14 ZM410 473.67 q0 20 -1 19 q-6 -1 -9.5 -5 q-3.5 -4 -2.5 -7 q1 -3 6 -12 l7 -13 l0 5 q0 5 0 13 ZM611 492.67 q-5 -1 -8.5 -4.5 q-3.5 -3.5 -3.5 -7 q0 -3.5 4 -10.5 l9 -16 l0 19 l-1 19 ZM653 472.67 q0 16 -0.5 18.5 q-0.5 2.5 -4.5 1 q-4 -1.5 -6.5 -5 q-2.5 -3.5 -2 -6.5 q0.5 -3 6.5 -15 l7 -13 l0 20 ZM659 492.67 l-1 -5 l0 -31 l7 12 q5 11 5.5 13.5 q0.5 2.5 -2 5.5 q-2.5 3 -5.5 4 l-4 1 ZM305 487.67 q-3 3 -6 4 l-3 0 l0 -33 l9 17 q3 6 3 7.5 q0 1.5 -3 4.5 ZM344 488.67 q-3 2 -5 3 l-3 0 l0 -35 l9 17 q3 5 3.5 7 q0.5 2 -1 4.5 q-1.5 2.5 -3.5 3.5 ZM423 490.67 q-2 1 -3.5 1 q-1.5 0 -2.5 -2 l0 -12 q0 -14 1 -13 q3 5 6 13 q3 8 2.5 10 q-0.5 2 -3.5 3 ZM586 490.67 q-2 1 -5 1 l-3 0 l0 -33 l5 7 q5 7 6 11 q1 4 -0.5 8.5 q-1.5 4.5 -2.5 5.5 ZM619 491.67 q-1 0 -1 -17 l0 -17 q2 1 6.5 10.5 q4.5 9.5 5.5 13.5 q0 6 -7 9 l-4 1 ZM708 487.67 q-3 3 -6 4 l-3 0 l0 -35 l6 11 q5 9 5.5 13 q0.5 4 -2.5 7 ZM716 475.67 l-15 -28 l12 0 q11 0 12 1 l-9 27 ZM279 460.67 q-6 12 -8 14 q-1 -1 -5 -14 l-5 -13 l25 0 l-7 13 ZM319 461.67 q-6 12 -7 13 q-1 -1 -8 -14 l-7 -13 l15 0 q13 0 13 1 q0 1 -6 13 ZM683 461.67 q-6 12 -8 13 q-1 -2 -7 -13 q-6 -11 -7 -13 q1 -1 14 -1 q13 0 13 1 q0 1 -5 13 ZM353 473.67 l-14 -26 q1 0 13.5 0 q12.5 0 12.5 1 q0 1 -6 12 l-6 13 ZM393 473.67 l-14 -26 q1 0 13.5 0 q12.5 0 12.5 1.5 q0 1.5 -6 12.5 l-6 12 ZM595 473.67 l-14 -25 q1 -1 13.5 -1 q12.5 0 12.5 1 q0 1 -6 13 l-6 12 ZM635 473.67 l-14 -26 q1 0 13.5 0 q12.5 0 12.5 1 q0 1 -6 13 l-6 12 ZM610 441.67 l-31 0 l7 -13 q6 -13 8 -14.5 q2 -1.5 5 5 q3 6.5 7 14.5 l4 8 ZM691 441.67 l-32 0 l16 -30 q0 1 6 11 l4 9 q3 4 4 6 l2 4 ZM286 440.67 q-1 0 -10.5 0 q-9.5 0 -11.5 -1 q-2 -1 -1 -6.5 q1 -5.5 4.5 -12.5 q3.5 -7 4.5 -6 l7 13 q6 11 7 13 ZM328 440.67 l-31 0 l15 -28 q1 0 8 14 l8 14 ZM367 438.67 q0 1 -2 2 l-27 0 l7 -14 q6 -13 8 -14 l6 12 q6 11 8 14 ZM407 439.67 q-1 1 -14.5 1 q-13.5 0 -14.5 -1 l15 -28 l7 14 q6 13 7 14 ZM649 439.67 q-1 1 -14.5 1 q-13.5 0 -14.5 -1 l7 -14 l6 -11 q2 -2 2 0 l8 13 q5 11 6 12 ZM726 438.67 q0 1 -2 2 l-23 0 l15 -29 l5 13 q4 12 5 14 ZM289 431.67 l-7 -12 q-5 -11 -6 -14 q1 -7 8 -9 q4 0 5 0 l0 35 ZM370 430.67 q-2 -1 -7 -12 q-5 -11 -6 -14 q1 -6 9 -8 l4 0 l0 17 l0 17 ZM410 430.67 l-7 -12 l-6 -13 q-1 -3 2 -6 q3 -3 9 -3 l2 0 l0 17 l0 17 ZM612 430.67 l-10 -17 q-5 -9 -1 -13 q2 -2 5.5 -3.5 q3.5 -1.5 5.5 -1.5 l0 35 ZM653 415.67 l-1 15 l-5 -8 q-5 -10 -6.5 -14 q-1.5 -4 -0.5 -6 q2 -5 9 -6 l4 -1 l0 10 l0 10 ZM692 429.67 l-7 -12 q-4 -8 -5 -11 q-1 -3 -1 -4 q2 -5 11 -6 l2 0 l0 16 l0 17 ZM710 410.67 q-2 2 -6 10 l-5 9 l0 -31 q1 -3 2 -3 l3 1 q1 0 4 3 q5 6 2 11 ZM329 412.67 q0 15 0 16 l-7 -12 q-5 -9 -5.5 -11.5 q-0.5 -2.5 0.5 -3.5 q3 -5 10 -5 l2 0 l0 16 ZM579 427.67 q-1 1 -1 -15 q0 -16 1 -17 l4 1 q4 1 5 4.5 q1 3.5 0.5 7 q-0.5 3.5 -4.5 10.5 l-5 9 ZM659 427.67 q-1 2 -1 -14.5 q0 -16.5 1 -17.5 l4 1 q11 3 2 21 l-6 10 ZM296 427.67 q0 -1 0 -16.5 q0 -15.5 1.5 -15.5 q1.5 0 4.5 1.5 q3 1.5 4.5 3.5 q1.5 2 1 5.5 q-0.5 3.5 -5.5 10.5 l-6 11 ZM337 427.67 l0 -32 l2 0 q6 2 9 7 q1 3 0 6 l-11 19 ZM572 427.67 l-4 -9 q-7 -14 -6.5 -18.5 q0.5 -4.5 7.5 -3.5 l3 0 l0 16 l0 15 ZM619 427.67 q0 -1 0 -16 l0 -16 l3 1 q6 1 7 8 q0 2 -1 4.5 q-1 2.5 -3 8.5 l-6 10 ZM378 425.67 q-1 1 -1 -14.5 q0 -15.5 1.5 -15.5 q1.5 0 4 2 q2.5 2 3.5 4.5 q1 2.5 0.5 6 q-0.5 3.5 -3.5 8.5 l-5 9 ZM422 411.67 q-6 20 -5 -2 q0 -15 1 -14 l4 1 q6 0 0 15 ZM561 385.67 q-4 7 -8 5 q-2 -1 -5.5 -6.5 q-3.5 -5.5 -6.5 -12.5 q-2 -3 -2.5 -4.5 q-0.5 -1.5 1.5 -4.5 q2 -6 14.5 -6 q12.5 0 13.5 5 q4 8 -7 24 ZM675 391.67 q-4 -1 -11 -14 q-4 -7 -4.5 -9 q-0.5 -2 0.5 -5 q1 -4 4.5 -5.5 q3.5 -1.5 11 -1 q7.5 0.5 10 1.5 q2.5 1 4.5 5 l1 4 l-5 10 q-5 9 -8 12 l-3 2 ZM718 387.67 q0 6 -5 2 q-5 -4 -9 -12 q-7 -13 -1 -17 l3 -3 l2 2 q1 3 4.5 12 q3.5 9 5.5 16 ZM282 378.67 q-4 8 -5.5 10 q-1.5 2 -4.5 2 q-3 0 -3 0 q1 -4 5 -16.5 q4 -12.5 6 -15 q2 -2.5 4 -0.5 q4 5 3.5 7.5 q-0.5 2.5 -5.5 12.5 ZM317 388.67 q-4 4 -9 0 q-2 -2 -6 -10 q-6 -11 -4.5 -15.5 q1.5 -4.5 10.5 -5.5 q4 -1 6 -1 q2 0 6 2 q9 3 7 10 q-1 4 -4.5 10.5 q-3.5 6.5 -5.5 9.5 ZM358 386.67 q-4 4 -5.5 4 q-1.5 0 -6 -5 q-4.5 -5 -6.5 -10 q-5 -10 -1.5 -14 q3.5 -4 13.5 -4 q19 1 16 13 q-3 8 -10 16 ZM398 385.67 q-4 5 -5 5 q-4 -1 -9.5 -9.5 q-5.5 -8.5 -6.5 -13.5 q0 -10 15.5 -10 q15.5 0 15.5 10 q0 3 -3 8 q-3 5 -7 10 ZM420 389.67 q-1 1 -7.5 1 q-6.5 0 -7.5 -1 l7 -14 l6 10 q2 4 2 4 ZM437 387.67 q-5 5 -8.5 1.5 q-3.5 -3.5 -7 -11 q-3.5 -7.5 -4.5 -10.5 q-1 -8 11 -10 q7 -2 11 0 q9 2 8 9 q0 4 -3 10.5 q-3 6.5 -7 10.5 ZM600 385.67 q-4 5 -5.5 5 q-1.5 0 -5.5 -5 q-4 -5 -7 -9 q-10 -19 13 -19 q12 0 15 7 q1 2 1 3.5 q0 1.5 -3 7 q-3 5.5 -8 10.5 ZM300 389.67 l-7 0 q-7 0 -8 -1 l4 -7 l3 -7 q1 1 4 8 l4 7 ZM340 389.67 l-7 0 q-7 0 -7.5 -1 q-0.5 -1 2.5 -6.5 q3 -5.5 4 -5.5 q1 0 5 6 l3 7 ZM380 389.67 l-15 0 l7 -14 q1 1 4 7 l4 7 ZM582 388.67 q-1 1 -7 1 l-8 0 l3 -6 q3 -7 4.5 -7 q1.5 0 4 5.5 q2.5 5.5 3.5 6.5 ZM622 389.67 l-15 0 l7 -14 l2 3 q2 3 4 7 l2 4 ZM640 386.67 q-3 3 -6 3 q-3 0 -8 -7 q-5 -7 -6 -14 q-1 -7 5.5 -10.5 q6.5 -3.5 15.5 -0.5 q9 3 8 9 q0 4 -2.5 10 q-2.5 6 -6.5 10 ZM663 389.67 l-16 0 l4 -8 q3 -6 4 -5.5 q1 0.5 4 6.5 l4 7 ZM703 389.67 l-16 0 l8 -15 q0 1 4 7 l4 8 ZM459 370.67 q-1 0 -1 -3.5 q0 -3.5 2 -5.5 q4 -5 17 -5 q8 0 9.5 2.5 q1.5 2.5 1 3.5 q-0.5 1 -13.5 4 l-15 4 ZM529 367.67 q0 3 -2 3 q-2 0 -10 -3 l-19 -5 l4 -3 q4 -2 9.5 -2.5 q5.5 -0.5 9.5 0.5 q8 3 8 10 ZM320 349.67 q-1 1 -7 1 q-13 0 -4 -4 q2 -1 3 -1 q1 0 4.5 1.5 q3.5 1.5 3.5 2.5 ZM359 349.67 q-1 1 -7 1 q-6 0 -6.5 -1 q-0.5 -1 2 -2.5 q2.5 -1.5 4 -1.5 q1.5 0 5 1.5 q3.5 1.5 2.5 2.5 ZM399 349.67 q-1 1 -6.5 1 q-5.5 0 -6.5 -1 q-1 -1 3 -3 q4 -2 6.5 0 q2.5 2 3.5 3 ZM441 349.67 q-1 1 -7 1 q-13 0 -4 -4 q2 -1 3 -1 q1 0 4.5 1.5 q3.5 1.5 3.5 2.5 ZM481 349.67 q-1 1 -8 1 q-7 0 -7.5 -1 q-0.5 -1 2.5 -2.5 q3 -1.5 5 -1.5 q2 0 5 1.5 q3 1.5 3 2.5 ZM521 349.67 q0 1 -7 1 q-11 0 -4 -4 q4 -1 7.5 -0.5 q3.5 0.5 3.5 3.5 ZM562 349.67 q-1 1 -7 1 q-13 0 -4 -4 q2 -1 3 -1 q1 0 4.5 1.5 q3.5 1.5 3.5 2.5 ZM602 349.67 q0 1 -7 1 q-11 0 -4 -4 q2 -2 6 0 q4 2 5 3 ZM642 349.67 q1 1 -8 1 q-9 0 -6 -2 q3 -4 10 -2 q4 1 4 3 ZM682 349.67 q1 1 -7 1 q-11 0 -4 -4 q2 -2 6 0 q4 2 5 3 ZM699 339.67 q0 2 -8.5 -0.5 q-8.5 -2.5 -10.5 -7.5 q-1 -2 -0.5 -4 q0.5 -2 4.5 -8 l2 -4 l7 11 q5 11 6 13 ZM304 336.67 q-2 2 -3.5 2.5 q-1.5 0.5 -5.5 0.5 l-7 0 l13 -24 l3 5 q6 11 0 16 ZM342 338.67 q-2 1 -9 1 q-7 0 -9.5 -1 q-2.5 -1 -4.5 -3.5 q-2 -2.5 -1.5 -5 q0.5 -2.5 6.5 -14.5 q6 -12 8 -15 q1 0 8 14 l8 14 l-2 5 q-2 4 -4 5 ZM383 337.67 q-3 2 -11 2 q-6 0 -7.5 -0.5 q-1.5 -0.5 -4.5 -3.5 q-3 -3 -2.5 -6 q0.5 -3 6 -14.5 q5.5 -11.5 8.5 -14.5 q1 1 7.5 12 q6.5 11 7.5 16.5 q1 5.5 -4 8.5 ZM425 336.67 q-3 2 -4.5 2.5 q-1.5 0.5 -8 0.5 q-6.5 0 -8 -0.5 q-1.5 -0.5 -4.5 -3.5 q-3 -3 -2.5 -5.5 q0.5 -2.5 7 -15.5 q6.5 -13 8.5 -15 q2 2 8 14.5 q6 12.5 6.5 15.5 q0.5 3 -2.5 7 ZM465 335.67 q-2 2 -4 3 q-2 1 -8 1 q-6 0 -8 -0.5 q-2 -0.5 -3 -1.5 q-4 -4 -3.5 -8 q0.5 -4 6.5 -15 l7 -14 q1 -2 3 1 l6 11 q6 11 6.5 15.5 q0.5 4.5 -2.5 7.5 ZM506 336.67 q-2 2 -4 2.5 q-2 0.5 -7.5 0.5 q-5.5 0 -8 -0.5 q-2.5 -0.5 -4.5 -2 q-2 -1.5 -3 -5 q-1 -3.5 0 -6 q1 -2.5 5 -10.5 l10 -18 l7 14 q6 11 7 16.5 q1 5.5 -2 8.5 ZM543 338.67 q-2 1 -8.5 1 q-6.5 0 -9.5 -1 q-5 -3 -6 -9 q1 -5 7 -17 q6 -12 8 -13 l8 14 q7 13 7 16 q0 6 -6 9 ZM585 338.67 q-3 1 -9.5 1 q-6.5 0 -9.5 -1 q-3 -1 -5 -3.5 q-2 -2.5 -1.5 -5.5 q0.5 -3 6.5 -15.5 q6 -12.5 8 -14.5 l9 15 q5 11 6 14 q1 3 0 5.5 q-1 2.5 -4 4.5 ZM625 337.67 q-3 2 -10.5 2 q-7.5 0 -10.5 -1.5 q-3 -1.5 -4 -4 q-1 -2.5 0 -5.5 q1 -3 6 -14 q8 -14 9 -14 q2 2 8 14 q6 12 7 15 q0 5 -5 8 ZM667 335.67 q-2 2 -4 3 q-2 1 -7 1 q-17 1 -16 -10 q0 -1 2 -6 l5 -10 q8 -15 9.5 -12 q1.5 3 7 14.5 q5.5 11.5 6 14 q0.5 2.5 -2.5 5.5 ZM325 296.67 q1 0 -6 14 l-8 14 l-2 -7 q-2 -6 -2 -7.5 q0 -1.5 2 -4.5 q2 -6 7 -8.5 q5 -2.5 9 -0.5 ZM393 323.67 l-14 -26 q1 -1 13.5 -1 q12.5 0 13 1 q0.5 1 -3.5 9 l-9 17 ZM595 323.67 l-14 -26 q1 -1 13.5 -1 q12.5 0 13.5 1 l-13 26 ZM366 297.67 l-14 25 l-6 -12 q-7 -12 -6 -13 q1 -1 13 -1 l13 1 ZM678 316.67 q-1 5 -2 5.5 q-1 0.5 -3 -2.5 l-7 -13 q-6 -11 -3 -10 q8 -3 14 6 q2 2 2 5.5 q0 3.5 -1 8.5 ZM440 309.67 q-6 11 -7 11 q-1 0 -7 -11 l-7 -13 l14 0 q12 0 12 1.5 q0 1.5 -5 11.5 ZM473 321.67 l-13 -25 l13 0 q12 0 13 0 l-13 25 ZM561 309.67 q-6 11 -7 12 l-6 -11 l-7 -13 q1 -1 13 -1 q12 0 12 1 q0 1 -5 12 ZM642 309.67 q-6 11 -7 11 q-1 0 -7 -11 l-7 -13 l13 0 q12 0 13 1 q1 1 -5 12 ZM521 308.67 q-6 11 -7 12 l-13 -23 q1 -1 13 -1 l13 0 l-6 12 ZM367 288.67 q-1 1 -15 1 l-15 0 l7 -14 q7 -13 8 -14 q1 2 7.5 13.5 q6.5 11.5 7.5 13.5 ZM408 288.67 q-1 1 -15 1 l-16 0 l15 -30 l8 14 q7 12 8 15 ZM449 289.67 l-15 0 q-15 0 -16 -1 l15 -28 l2 3 q2 3 8 14 l6 12 ZM490 289.67 l-16 0 q-15 0 -16 -1 l16 -30 l8 16 l8 15 ZM530 289.67 l-16 0 q-15 0 -16 -1 l15 -28 q1 0 9 14 l8 15 ZM569 288.67 q-1 1 -15 1 l-16 0 l7 -13 q6 -13 8 -14.5 q2 -1.5 4 3.5 l8 15 q4 8 4 8 ZM594 289.67 q-14 0 -15 -1 l15 -29 l14 25 q2 4 2 5 l-16 0 ZM650 289.67 l-15 0 q-14 0 -15 -1 q1 -2 7 -13.5 q6 -11.5 8 -13.5 q1 1 8 14 l7 14 ZM572 280.67 l-7 -13 q-6 -13 -6 -15 q0 -2 6 -14 l7 -12 l0 13 l0 41 ZM370 263.67 q0 15 0 16 l-13 -23 l13 -9 l0 16 ZM492 279.67 q-2 -2 -7.5 -13.5 q-5.5 -11.5 -5.5 -14 q0 -2.5 6 -14.5 l7 -14 l0 28 l0 28 ZM612 279.67 l-10 -18 q-2 -4 -2 -7.5 q0 -3.5 1.5 -8.5 q1.5 -5 2.5 -5 q1 0 4 2 q3 2 4 3 l0 6 q0 6 0 12 l0 16 ZM410 278.67 q-2 -2 -7 -12.5 q-5 -10.5 -5.5 -13 q-0.5 -2.5 3.5 -9.5 q4 -7 6 -10.5 q2 -3.5 2.5 0 q0.5 3.5 0.5 21.5 l0 24 ZM463 265.67 q-5 11 -6 12 l-1 -52 l9 18 q4 7 3.5 9 q-0.5 2 -5.5 13 ZM618 277.67 q0 -1 0 -15 q0 -15 1 -13 l11 6 q-1 2 -5 11 l-7 11 ZM590 254.67 q-1 3 -6 12 l-6 10 l0 -48 l6 10 q4 9 5 12 q1 3 1 4 ZM418 274.67 q-1 2 -1 -21 l0 -23 l3 3 q12 14 3 32 l-5 9 ZM450 275.67 l-4 -5 q-7 -8 -7 -14.5 q0 -6.5 6 -17.5 l5 -9 l0 11 l0 35 ZM530 275.67 l-6 -11 q-5 -10 -5 -12.5 q0 -2.5 5 -12.5 l6 -12 l0 13 l0 35 ZM549 254.67 q-1 4 -6 12 l-5 9 l1 -44 q0 1 5.5 11 q5.5 10 4.5 12 ZM387 252.67 q0 3 -1 6 q-1 3 -4 7 l-5 8 l0 -9 q-2 -16 2 -22 l2 -3 l3 4 q3 4 3 9 ZM505 261.67 q-3 6 -4.5 8.5 q-1.5 2.5 -2.5 0.5 l0 -40 l3 4 q7 11 7 17 q0 4 -3 10 ZM433 246.67 l-12 -23 l14 -4 q12 -3 14 -4 l-16 31 ZM554 246.67 q-2 -2 -8 -15 l-8 -16 q2 1 14 4 l14 3 q0 2 -6 12 l-6 12 ZM599 236.67 q0 1 -2 5 l-2 5 l-9 -16 l6 3 q6 3 7 3 ZM396 239.67 q-3 5 -4 6 l-4 -8 l6 -3 q5 -3 5.5 -2 q0.5 1 -3.5 7 ZM474 245.67 l-17 -31 q1 -1 15.5 -2 q14.5 -1 16 0.5 q1.5 1.5 -4.5 12.5 l-10 20 ZM513 245.67 l-8 -16 q-8 -16 -6.5 -17 q1.5 -1 15 0 q13.5 1 16.5 1 q-1 2 -8 16 l-9 16 Z"></path></symbol><symbol id="mg" viewBox="0 -128 1024 1024"><path d="M537 699 l108 0 q24 -1 23 -2 q5 -2 5 -16 q-1 -9 2 -14.5 q3 -5.5 11 -14.5 q15 -15 20 -15 q2 -1 8.5 -6.5 q6.5 -5.5 10 -7 q3.5 -1.5 7 -4.5 q3.5 -3 5 -3.5 q1.5 -0.5 -1 -5 q-2.5 -4.5 2.5 -10.5 q2 -3 2 -6.5 q0 -3.5 4 -4.5 q6 -4 0 -9.5 q-6 -5.5 -34.5 -20 q-28.5 -14.5 -34.5 -16.5 q-5 1 -1.5 3.5 q3.5 2.5 -7.5 2.5 l-6 0 l-7 7 q-12 11 -19 6 q-3 -1 -5.5 -5 q-2.5 -4 -6 -14.5 q-3.5 -10.5 -6.5 -15.5 q-3 -5 -7 -8.5 q-4 -3.5 -11 -7.5 q-7 -4 -9 -4 q-2 0 -6 -4 q-4 -4 -5.5 -6.5 q-1.5 -2.5 -1.5 -8.5 q0 -6 3 -9 q6 -4 1 -17 q-1 -3 -1.5 -7 q-0.5 -4 -0.5 -11 q0 -13 1 -13 l53 -4 q2 0 2 -1 q0 -1 -6 -2 l-48 -4 l0 -4 q-1 -4 0 -5 l26 -10 q17 -6 21.5 -8.5 q4.5 -2.5 3.5 -3 q-1 -0.5 -9 1.5 l-44 8 q-5 1 -7 -0.5 q-2 -1.5 0 -2.5 q37 -34 35.5 -34.5 q-1.5 -0.5 -10.5 4.5 q-9 5 -24 15 q-9 5 -13 6.5 q-4 1.5 -8 1.5 q-11 0 -12 -4 l-6 -41 q-3 -2 -4 0 l-6 42 q-1 1 -7 2 q-6 1 -8.5 1 q-2.5 0 -5.5 -2 l-46 -25 q-3 0 1.5 4 q4.5 4 17 13.5 q12.5 9.5 15.5 12.5 q3 3 1.5 4.5 q-1.5 1.5 -4.5 1.5 q-3 0 -20.5 -3 q-17.5 -3 -23.5 -5 q-1 1 -3 -5 l-6 -27 q-9 -35 -10.5 -48 q-1.5 -13 1.5 -24 q3 -8 2 -21 q1 -9 0.5 -11.5 q-0.5 -2.5 -3 -5 q-2.5 -2.5 -2.5 -5.5 q-1 -5 8 -9 q13 -5 7 -15 q-2 -4 2 -16 q1 -2 -4 -2 q-5 0 -6 -2 q-1 -2 -5 -1 l-3 0 l1 -2 q8 -10 8 -17.5 q0 -7.5 -7 -16.5 q-4 -5 -6 -6.5 q-2 -1.5 -4.5 -1.5 q-2.5 0 -8 3.5 q-5.5 3.5 -8.5 6.5 l-3 3 l-3 -4 l-7 10 q-5 12 -2 20 q4 5 -1 4 q-5 -1 -11 2 q-6 3 -6 5 q2 9 -0.5 14 q-2.5 5 -3 8.5 q-0.5 3.5 4.5 6 q5 2.5 5.5 5 q0.5 2.5 0.5 14.5 l0 20 q0 4 0.5 6 q0.5 2 2.5 5.5 q2 3.5 6.5 8 q4.5 4.5 4.5 5.5 q0 1 -2 3 q-4 5 1 9 q2 2 3 3.5 q1 1.5 1 7.5 q0 6 0.5 8 q0.5 2 3.5 4 l3 4 l-1 23 l0 19 q0 16 0 22.5 q0 6.5 2 11.5 l3 15 q0 2 -0.5 3.5 q-0.5 1.5 -4.5 3.5 q-8 6 -8 13 q0 4 -4 8.5 q-4 4.5 -4.5 8.5 q-0.5 4 2.5 13 q3 9 6 13 q3 4 7 5 l4 1 l-3 8 q-2 8 -0.5 11.5 q1.5 3.5 8.5 5.5 q7 2 7.5 4.5 q0.5 2.5 -3.5 14.5 q-5 15 -3.5 21.5 q1.5 6.5 12 15.5 q10.5 9 9.5 10.5 q-1 1.5 -2 10 q-1 8.5 -3.5 14 q-2.5 5.5 -10.5 17.5 q-11 14 -12 25 q-1 5 2 8.5 q3 3.5 12.5 6 q9.5 2.5 10.5 10.5 q0 3 -1 5.5 q-1 2.5 -5.5 7.5 q-4.5 5 -4.5 6 l128 1 ZM483 454 q-3 2 -5 2 q-2 0 -5 -2 q-3 -2 -5 -4 q-2 -2 -6 -10.5 q-4 -8.5 -4 -10.5 l26 2 q0 1 -1 5 q-4 9 1 14 l3 3 l-4 1 ZM461 422 q-4 1 -6.5 -2 q-2.5 -3 -6.5 -16 l-3 -8 l5 2 q34 13 33 14 l0 8 l-9 0 l-13 2 Z"></path></symbol><symbol id="sh" viewBox="0 -128 1024 1024"><path d="M268 727 l488 0 l0 -146 l-3 0 q-3 1 -4 -1 q-1 -2 -1 -9.5 q0 -7.5 -1 -9.5 q-1 -2 -1 4.5 q0 6.5 -1.5 6 q-1.5 -0.5 -1.5 3 q0 3.5 -1 3.5 q-1 0 -1 1.5 q0 1.5 -2.5 2 q-2.5 0.5 -2.5 -0.5 q0 -1 -6 -1 l-5 0 l0 -62 l-3 -2 q-3 -2 -9.5 -1.5 q-6.5 0.5 -7.5 2 q-1 1.5 -1 35 q0 33.5 -1 33.5 q-1 0 -1.5 1.5 q-0.5 1.5 -0.5 -11.5 l0 -15 l-10 -8 l0 -25 q-1 -2 -2 -1.5 q-1 0.5 -1 -11 q0 -11.5 -1 -6 q-1 5.5 -1 10.5 l0 6 l-12 7 q-1 0 -1.5 -3.5 q-0.5 -3.5 -2 -0.5 q-1.5 3 -2.5 -5 q0 -4 -1 -7.5 q-1 -3.5 -1 1.5 l-1 11 l-6 0 q-6 0 -6.5 2 q-0.5 2 -2.5 1.5 q-2 -0.5 -2 4.5 q0 5 -1 5 q-1 0 -1 10 l-1 79 l-3 0 q-2 -1 -2.5 3 q-0.5 4 -0.5 -3 l0 -9 l-11 0 l0 -43 l0 -7 q-1 0 -1 -2 q0 -2 -2 -2.5 q-2 -0.5 2 -1.5 q4 -1 4 -3 q0 -2 -2.5 -2 q-2.5 0 -3.5 -2.5 q-1 -2.5 -4 -3.5 l-4 -1 l0 -7 q0 -7 -1 -5 q-1 2 -1 6 q0 4 -0.5 5 q-0.5 1 -4 2 q-3.5 1 -4.5 3.5 q-1 2.5 -4 2.5 q-3 0 -3 2 q0 2 4 3 q4 1 2 1.5 q-2 0.5 -2 2.5 q0 2 -0.5 2 q-0.5 0 -0.5 10 l0 60 l-6 0 q-3 0 -5 -0.5 q-2 -0.5 -4 -2.5 l-3 -3 l0 -24 q-1 -3 -2.5 -3.5 q-1.5 -0.5 -2 -7 q-0.5 -6.5 -1.5 -8 q-1 -1.5 -1 -6.5 q-1 -17 -2 -3 q-2 20 -4 24.5 q-2 4.5 -2 13.5 l0 10 l-12 0 q-9 0 -11 -1 q-2 -1 -2 -5.5 q0 -4.5 -2 -10.5 q-1 -2 -1 -11 l0 -67 q0 -9 -1 -8 q-4 -2 -15 -1 q-11 1 -16 3 q-2 1 -2 -4.5 q0 -5.5 -1 -8 q-1 -2.5 -2 14.5 q-1 17 -2 46 l0 33 q-1 9 -2 14 q-2 8 -2 22.5 q0 14.5 -0.5 26.5 q-0.5 12 -1.5 12 l-4 -10 q-4 -10 -3 -13 q0 -7 -5 -8 q-1 0 -2 -2 l-5 -23 l5 -5 q6 -6 8 -11 q2 -5 1 -12 q1 -15 -7 -21 l-4 -2 l-3 -159 l4 -4 q4 -5 5.5 -9 q1.5 -4 1.5 -9 q-1 -18 -15 -24 q-4 -1 -4 -3.5 q0 -2.5 -1 -3 q-1 -0.5 -2 -4 q-1 -3.5 2 -4.5 q3 -1 2.5 -4 q-0.5 -3 -3.5 -3 q-1 0 -2 -1 l0 -8 q0 -6 0.5 -8 q0.5 -2 2.5 -3 q2 -1 2.5 -4.5 q0.5 -3.5 -1 -6.5 q-1.5 -3 -1 -5 q0.5 -2 -1 -2.5 q-1.5 -0.5 -2.5 -2.5 q-1 -2 -1 -13 q0 -11 1.5 -13 q1.5 -2 0 -3 q-1.5 -1 -2 -3.5 q-0.5 -2.5 -0.5 -9.5 q0 -10 -1 -26.5 q-1 -16.5 -2 -18.5 q0 1 0 17 l-1 18 q0 2 0 11 q0 9 -0.5 11.5 q-0.5 2.5 -0.5 15.5 q0 11 0 13.5 q0 2.5 -2.5 2.5 q-2.5 0 -2 2 q0.5 2 -0.5 6 q-3 8 2 12 q1 0 1.5 2 q0.5 2 0.5 8 l0 9 l-3 1 q-6 3 0 6 q2 1 2 4.5 q0 3.5 -1.5 4.5 q-1.5 1 -1.5 3 q0 2 -2.5 2.5 q-2.5 0.5 -6.5 3.5 q-7 5 -9 14 q-2 9 1 17 q3 6 6 9 l4 3 l-3 113 l-32 21 l0 96 q-1 10 -1.5 9.5 q-0.5 -0.5 -1.5 -3.5 l0 -28 q-1 -4 -2.5 -5 q-1.5 -1 -1.5 -4.5 q0 -3.5 -4 -5.5 l-4 -3 l-4 2 q-5 3 -5 5.5 q0 2.5 -2.5 3.5 q-2.5 1 -2.5 3 q0 2 -1 2 q-1 0 -2 -4 l0 -38 l-5 -2 q-7 -4 -4 -8 q1 -1 1 -8 l0 -6 l-15 -9 l0 -8 q-1 -7 -0.5 -11.5 q0.5 -4.5 -1.5 -5.5 q-4 -2 -4 1.5 q0 3.5 -1 12 q-1 8.5 -3 11 q-2 2.5 -9 7.5 l-5 3 l0 8 q0 6 2 8 q2 2 -3 4 q-2 2 -8 -3 l-6 -3 l-8 5 q-5 4 -6.5 5.5 q-1.5 1.5 -1.5 4.5 q0 3 -1 4 q-1 1 -2 9 l0 74 q-1 9 -1.5 9 q-0.5 0 -1.5 -4 l0 -43 l-3 -1 q-3 -2 -3.5 -3 q-0.5 -1 -0.5 -5 q0 -5 -2.5 -6 q-2.5 -1 -6.5 0 q-4 1 -4 3 q0 2 -3 1.5 q-3 -0.5 -3.5 8 q-0.5 8.5 -0.5 44.5 l0 46 Z"></path></symbol><symbol id="jnd" viewBox="0 -128 1024 1024"><path d="M503 664.11 l19 0 l-2 -70 q-1 -44 -0.5 -55 q0.5 -11 3 -13 q2.5 -2 5.5 -2 l124 16 q2 1 1 -2 l-6 -18 q-5 -13 -6 -19 q-1 -6 1 -8 q2 -2 20 -17 l109 -90 q-1 -1 -13 -6 l-16 -8 q-4 -3 -4 -7.5 q0 -4.5 5 -20.5 l17 -61 q0 -3 -1 -3 l-12 2 l-26 5 q-26 6 -33 6.5 q-7 0.5 -9.5 -2 q-2.5 -2.5 -4.5 -7.5 q-2 -5 -5 -16 q-3 -11 -3.5 -12 q-0.5 -1 -7.5 5 l-15 17 q-28 32 -35.5 39 q-7.5 7 -11.5 6.5 q-4 -0.5 -6 -3.5 q-2 -3 0 -19.5 q2 -16.5 11 -63.5 l12 -62 l-34 18 l-8 4 q-8 2 -13 -6 l-42 -79 q-5 -8 -5 -7 l-43 76 l-9 15 q-2 3 -8 1 q-6 -2 -24 -11 l-18 -9 q0 0 4 21 l15 79 q5 26 6 34.5 q1 8.5 -2 10.5 q-7 8 -19 -6 l-56 -61 q-1 1 -4 15 l-6 19 q-4 6 -11 7 l-72 -15 q-2 -1 0 5 l21 77 q2 5 -2.5 9 q-4.5 4 -19.5 10 q-9 4 -10 4.5 q-1 0.5 13 12.5 l96 77 q15 13 17 15 q5 4 4.5 10 q-0.5 6 -6.5 23 l-5 15 q-1 1 11 0 l113 -15 q3 0 6 3 l3 3 l-1 70 q0 19 -1 33 l0 31 Z"></path></symbol><symbol id="slfk" viewBox="0 -128 1024 1024"><path d="M493 597 q14 7 17 7 q9 -1 35.5 -17 q26.5 -16 48.5 -33 q9 -8 22 -21 q13 -13 21 -22 q44 -54 58 -124 q5 -22 7 -44.5 q2 -22.5 3 -56.5 q0 -23 -0.5 -38 q-0.5 -15 -2.5 -51 l-5 -63 q-1 -12 -3 -12 q4 -1 -26 -2 l-317 0 q-30 1 -26 2 q0 1 -1 10 l-6 74 q-2 28 -2 71.5 q0 43.5 2 63.5 q4 36 12 64 q8 28 20 53 q42 86 143 139 ZM531 410 l-41 0 l0 -68 l-10 0 q-14 -1 -37 1 q-23 2 -41 5 q-7 2 -7.5 1 q-0.5 -1 1.5 -9 q2 -8 1.5 -20 q-0.5 -12 -2.5 -20 q-2 -8 0 -8 l17 4 l24 3 l13 1 l41 1 l0 -48 l-9 0 q-17 0 -48 5 l-18 3 q-1 -1 1 -6 l1 -8 l1 -12 q0 -8 -0.5 -12.5 q-0.5 -4.5 -1.5 -9.5 l-2 -9 l15 3 q31 5 51 5 q8 0 9.5 -0.5 q1.5 -0.5 1.5 -1.5 l-8 -70 q1 0 8 1.5 q7 1.5 19.5 1.5 q12.5 0 19.5 -1.5 q7 -1.5 8 -1.5 q0 4 -4 33 l-5 39 l12 0 q12 0 29 -2 q17 -2 34 -6 l3 0 l-2 8 q-2 8 -2 20.5 q0 12.5 1.5 19.5 q1.5 7 1.5 8 l-75 -9 l0 49 l23 0 q17 0 30.5 -1 q13.5 -1 29.5 -4 q10 -2 12 -2 l-2 14 q-1 9 -1 14 q0 5 1 14 q2 12 1 13 q-1 1 -12 -1 q-19 -3 -40 -4.5 q-21 -1.5 -33 -0.5 l-9 0 l0 34 l0 34 Z"></path></symbol><symbol id="js" viewBox="0 -128 1024 1024"><path d="M371 554 l92 0 l0 -134 q1 -15 2 -18 q3 -12 11.5 -20.5 q8.5 -8.5 21.5 -12.5 q8 -2 18 -0.5 q10 1.5 18 5.5 q5 3 10.5 8.5 q5.5 5.5 9 11 q3.5 5.5 4 19 q0.5 13.5 0.5 67.5 l0 56 q1 17 1 17 q7 1 48.5 1 q41.5 0 47.5 -1 l-25 -297 l-67 0 l0 32 l-27 0 q-4 -1 -4.5 -2 q-0.5 -1 -1.5 -9 q-1 -8 -1 -17 l0 -4 l-38 0 l0 14 q1 13 -2 16 q-3 3 -16 2 l-15 0 l0 -32 l-64 0 l-12 152 q-10 124 -11 143 l0 3 ZM671 553 q0 0 9 1 l67 0 q13 -1 14 -0.5 q1 0.5 -2 -16.5 l-32 -184 q-4 -21 -5.5 -27.5 q-1.5 -6.5 -4.5 -9.5 q-4 -6 -19 -9 l-46 -10 q0 -2 2 28 l15 214 q1 16 2 14 ZM262 551 q-1 1 6 2 l86 0 l18 -255 q1 -1 -6 0 l-28 7 q-22 5 -27.5 7 q-5.5 2 -5.5 4 q-3 16 -21.5 117 q-18.5 101 -21.5 118 Z"></path></symbol><symbol id="lhc" viewBox="0 -128 1024 1024"><path d="M491 640 q7 1 22 1 q15 0 23 -2 q44 -7 78.5 -38 q34.5 -31 50.5 -77 q5 -16 7 -27 q2 -11 2 -29 q0 -15 -0.5 -21.5 q-0.5 -6.5 -2.5 -12.5 q-9 -40 -38 -73 q-18 -21 -43 -36 q-25 -15 -52 -21 q-6 -2 -8 -3 q-2 -1 -1.5 -4 q0.5 -3 11 -24.5 q10.5 -21.5 19.5 -38.5 q12 -23 24.5 -47.5 q12.5 -24.5 15 -28.5 q2.5 -4 -6.5 -5 q-9 -1 -53 -1 l-47 0 q-11 1 -12 2 q-5 2 -12 17 q-5 10 -17 34 l-69 136 q-21 40 -30.5 64.5 q-9.5 24.5 -12.5 45.5 q-1 10 -0.5 26.5 q0.5 16.5 2.5 25.5 q10 44 40 78 q30 34 74 50 q7 3 17.5 5.5 q10.5 2.5 18.5 3.5 ZM521 531 q-23 6 -46 -8 q-19 -12 -26 -33 q-2 -9 -2.5 -18.5 q-0.5 -9.5 2.5 -16.5 q5 -14 16.5 -25 q11.5 -11 26.5 -16 q7 -3 16.5 -2.5 q9.5 0.5 16.5 2.5 q23 10 34.5 30 q11.5 20 7.5 42 q-5 15 -17.5 27.5 q-12.5 12.5 -28.5 17.5 Z"></path></symbol><symbol id="yn" viewBox="0 -128 1024 1024"><path d="M365 674 l288 0 l0 -39 q0 -31 1 -38.5 q1 -7.5 7 -9.5 q10 -6 9 -7 q-1 -1 -18 -1 q-19 0 -18 -1 l-1 -76 l3 -5 q2 -6 8 -9 q8 -4 6 -5 q-2 -1 -17 -1 l-18 0 l0 -67 q1 -8 2 -10 q1 -2 8 -6 q7 -4 6.5 -5 q-0.5 -1 -16.5 -2 l-18 0 l0 -56 q1 -9 2 -10.5 q1 -1.5 9 -7.5 l9 -5 l-38 -1 l0 -24 q-1 -23 0.5 -26.5 q1.5 -3.5 4.5 -7 q3 -3.5 7 -5 q4 -1.5 4.5 -3 q0.5 -1.5 -16.5 -11.5 q-17 -10 -37 -20 q-11 -6 -16.5 -10.5 q-5.5 -4.5 -6.5 -8.5 l-2 -7 l-1 -11 q0 -8 -1 -13 q-1 -5 -3 -10 q-3 -9 -4 -9 q-1 0 -1 4 l-5 31 q-3 13 -4 16.5 q-1 3.5 -5 7 q-4 3.5 -16 9.5 q-16 9 -35 20 q-19 11 -21 12 q1 1 6.5 4 q5.5 3 8.5 6 l3 3 l0 44 l-1 8 q0 1 -3 2 l-15 0 q-17 0 -16 1 q1 1 7.5 4.5 q6.5 3.5 8 9.5 q1.5 6 1.5 31 l-1 31 q1 1 -2 2 l-16 0 q-17 0 -17 1 q0 1 7 5.5 q7 4.5 8 6.5 q1 2 2 10 l0 67 l-31 0 q-5 1 -5 1.5 q0 0.5 11 7.5 q5 1 6 9 q1 8 1 40 l0 40 l-38 0 l5 4 q10 5 12.5 9.5 q2.5 4.5 1.5 15.5 l-1 16 q0 11 1 22 l0 27 ZM525 665 l-33 0 l0 -15 q0 -12 1.5 -15.5 q1.5 -3.5 7 -5.5 q5.5 -2 11.5 -1.5 q6 0.5 8.5 3.5 q2.5 3 4.5 23 l0 11 ZM643 590 l-131 1 q-101 0 -122.5 -0.5 q-21.5 -0.5 -23.5 -4.5 l-3 -3 l146 0 q114 0 132.5 0.5 q18.5 0.5 5.5 4.5 l-4 2 ZM523 572 l-29 0 l0 -12 q0 -13 2 -15 q3 -4 9.5 -5 q6.5 -1 10.5 1.5 q4 2.5 5.5 6.5 q1.5 4 1.5 13 l0 11 ZM626 492 q-1 1 -23 2 l-93 0 q-85 0 -104.5 -0.5 q-19.5 -0.5 -20.5 -4.5 l-3 -2 l237 0 q20 1 14 2 q-3 2 -7 3 ZM521 481 l-25 0 l0 -11 q0 -6 0.5 -8.5 q0.5 -2.5 2.5 -4.5 q4 -3 10.5 -2.5 q6.5 0.5 9.5 4.5 q1 3 2 12 l0 10 ZM607 403 q-1 0 -22 1 l-76 0 l-81 0 q-17 -1 -18 -2 q-5 -1 -9 -2.5 q-4 -1.5 15 -2.5 l203 0 l-4 2 q-4 2 -8 4 ZM519 388 l-21 0 l0 -9 q0 -6 0.5 -8 q0.5 -2 2.5 -4 q4 -3 9.5 -2 q5.5 1 7 4.5 q1.5 3.5 1.5 14.5 l0 4 ZM590 323 l-136 0 q-23 0 -26 -0.5 q-3 -0.5 -7 -2.5 l-4 -3 l92 0 l93 0 l-6 3 l-6 3 ZM519 307 l-20 0 l0 -8 q0 -4 0.5 -6 q0.5 -2 1.5 -4 q9 -6 15 1 q2 3 3 10 l0 7 ZM572 254 q-11 1 -62 1.5 q-51 0.5 -63 -1.5 q-4 -1 -8 -3 l-4 -3 l74 0 l74 0 l-4 3 q-4 2 -7 3 Z"></path></symbol><symbol id="xj" viewBox="0 -128 1024 1024"><path d="M497 652 q7 2 15.5 2 q8.5 0 14.5 -2 q12 -3 20 -13 q16 -18 13 -39 q-1 -7 -3 -9 q-2 -2 -9 -3 q-17 -3 -29 -14 q-6 -5 -7 -5 q-1 0 -3.5 2.5 q-2.5 2.5 -8.5 6.5 q-6 4 -11.5 6.5 q-5.5 2.5 -12.5 3.5 q-7 1 -8.5 3.5 q-1.5 2.5 -2 11 q-0.5 8.5 0.5 14.5 q1 6 4 12 q9 17 27 23 ZM451 577 q4 1 7.5 1.5 q3.5 0.5 11.5 0.5 q8 0 11 -1 q3 -1 8 -3 q11 -6 16 -12 q1 -2 0.5 -4 q-0.5 -2 -2.5 -8 q-2 -6 -3 -9.5 q-1 -3.5 0 -9.5 q0 -8 0 -14 l1 -5 l-7 -3 q-9 -3 -15.5 -8 q-6.5 -5 -14.5 -15 q-3 -4 -7 -3 q-4 1 -11 4 q-13 7 -21 23 q-2 4 -3 7.5 q-1 3.5 -1 10 q0 6.5 0.5 10 q0.5 3.5 1.5 7.5 q3 10 10.5 18.5 q7.5 8.5 17.5 12.5 ZM544 578 q4 1 12 1 q30 0 44 -28 q2 -4 3 -7.5 q1 -3.5 1 -9.5 q0 -6 -0.5 -9.5 q-0.5 -3.5 -1.5 -7.5 q-4 -12 -13.5 -21 q-9.5 -9 -20.5 -12 q-3 0 -5.5 1.5 q-2.5 1.5 -9.5 10 q-7 8.5 -24 16.5 q-9 3 -12.5 2 q-3.5 -1 -5.5 3 q-3 5 -2.5 15.5 q0.5 10.5 5 20 q4.5 9.5 13 16.5 q8.5 7 17.5 9 ZM403 503 q7 4 10.5 4 q3.5 0 5.5 -6 q12 -17 30 -24 q5 -2 6.5 -3 q1.5 -1 0.5 -3 l0 -18 q-1 -12 -1 -15 l-5 -3 l-25 -13 l-7 6 q-8 7 -17.5 11 q-9.5 4 -16 4 q-6.5 0 -7.5 11 q-2 15 5 28.5 q7 13.5 21 20.5 ZM607 505 q3 5 15 -1.5 q12 -6.5 19 -18 q7 -11.5 7 -25 q0 -13.5 -3.5 -15.5 q-3.5 -2 -11.5 -3.5 q-8 -1.5 -13 -4 q-5 -2.5 -13 -8 q-8 -5.5 -10 -5.5 q-2 0 -14 6.5 q-12 6.5 -14 7.5 l-1 6 l0 30 l4 2 q13 5 20 10.5 q7 5.5 16 18.5 l-1 0 ZM499 502 q9 3 18.5 2 q9.5 -1 17.5 -5 q4 -2 9.5 -7 q5.5 -5 8.5 -10 q9 -15 7 -32 q-1 -7 -3.5 -9.5 q-2.5 -2.5 -8.5 -3 q-6 -0.5 -12 -3 q-6 -2.5 -14 -7.5 l-11 -7 q-2 0 -6 4 q-12 11 -32 14 q-7 1 -8 12 q-2 17 7.5 32 q9.5 15 26.5 20 ZM364 431 q5 2 15 2 q21 0 34 -13 q4 -4 4.5 -7 q0.5 -3 -2.5 -10 q-8 -20 -2 -38 q2 -7 2 -10 q0 -3 -4 -6 q-12 -11 -28.5 -11.5 q-16.5 -0.5 -30.5 8.5 q-5 4 -10 10 q-5 6 -7.5 12.5 q-2.5 6.5 -2.5 15.5 q0 9 2 16 q8 23 30 31 ZM630 432 q5 1 16 1 q6 0 9.5 -1 q3.5 -1 7.5 -2 q28 -14 28 -44.5 q0 -30.5 -27 -43.5 q-13 -6 -27 -4.5 q-14 1.5 -25 11.5 q-3 2 -3.5 3.5 q-0.5 1.5 0 5 q0.5 3.5 2.5 10.5 q5 18 -3 37 q-3 5 -2.5 8.5 q0.5 3.5 8 9.5 q7.5 6 16.5 9 ZM455 427 q6 2 13.5 2 q7.5 0 13.5 -2 q6 -2 12.5 -6 q6.5 -4 8.5 -6.5 q2 -2.5 1.5 -5.5 q-0.5 -3 -3.5 -12 q-7 -16 2 -39 q2 -4 2 -5.5 q0 -1.5 -1.5 -4 q-1.5 -2.5 -7.5 -6.5 q-15 -10 -32 -9 q-17 1 -29 13.5 q-12 12.5 -14.5 27.5 q-2.5 15 5.5 30 q9 18 29 23 ZM542 427 q9 3 19.5 1.5 q10.5 -1.5 17.5 -5.5 q5 -3 10 -8 q5 -5 8 -9 q6 -11 6 -25.5 q0 -14.5 -7 -25.5 q-14 -20 -36.5 -22 q-22.5 -2 -38.5 15 q-14 14 -14 33.5 q0 19.5 14 33.5 q10 9 21 12 ZM422 346 l6 -6 q10 -9 25 -15 q6 -1 4.5 -4.5 q-1.5 -3.5 -2 -12 q-0.5 -8.5 0 -15.5 q0.5 -7 -0.5 -10 q-1 -3 -6 -5 q-15 -9 -30.5 -7 q-15.5 2 -28.5 13 q-14 14 -14 35 q0 6 1.5 7.5 q1.5 1.5 6.5 1.5 q7 0 16.5 4 q9.5 4 16.5 10 l5 4 ZM601 346 l6 -5 q18 -13 33 -13 q4 0 5.5 -1.5 q1.5 -1.5 1.5 -7.5 q0 -18 -11.5 -31 q-11.5 -13 -29.5 -16 q-10 -2 -19.5 0.5 q-9.5 2.5 -16.5 8.5 q-2 1 -2.5 2.5 q-0.5 1.5 0 5.5 q0.5 4 0.5 8 l-1 26 q0 2 1 2 q5 0 14.5 6 q9.5 6 14.5 11 l4 4 ZM512 342 q2 0 8 -5 q6 -5 11 -7 q5 -2 13.5 -4.5 q8.5 -2.5 11 -5.5 q2.5 -3 3.5 -11 q2 -12 -2.5 -24 q-4.5 -12 -15.5 -22 q-18 -14 -39.5 -8.5 q-21.5 5.5 -33.5 26.5 q-2 5 -2.5 8.5 q-0.5 3.5 -1.5 8.5 q0 8 1 14 q1 6 3 8.5 q2 2.5 9 3.5 q5 1 9 3 q4 2 12 7 l14 8 ZM593 255 q6 2 11 2 q5 0 9.5 -1 q4.5 -1 5.5 -1 l-14 -36 q1 -1 8 4 q18 13 29 7 q5 -3 20 -13.5 q15 -10.5 17 -13.5 q1 -1 -3 -7 l-14 -17 q-7 -9 -11 -12.5 q-4 -3.5 -8 -4.5 q-4 -1 -7 -0.5 q-3 0.5 -10 1.5 l-12 3 q-1 0 -1 -1 q0 -1 6 -3 q8 -5 15.5 -14.5 q7.5 -9.5 5.5 -12 q-2 -2.5 -13 -8.5 l-11 -5 l-17 0 q-15 0 -15.5 -1 q-0.5 -1 3.5 -3 q11 -5 -7 -5 q-18 0 -30.5 9 q-12.5 9 -17.5 24 q-1 5 -1 13 q0 8 1.5 11 q1.5 3 -3.5 2 l-23 -3 q-19 -1 -24 -5 q-5 -4 -17 -24 l-11 -17 q-5 -8 -6 -8.5 q-1 -0.5 -3 0.5 q-2 1 -9 6 q-7 5 -7 7.5 q0 2.5 5 8.5 l28 37 q4 5 18 37 l15 33 q3 2 8 1 q5 -1 6 -4 l-3 -10 l-18 -51 l8 0 q10 -1 22 0.5 q12 1.5 12.5 3 q0.5 1.5 -3.5 9.5 q-3 6 -4 9 q-1 3 -1 9.5 q0 6.5 2 11 q2 4.5 7 9.5 q10 12 29 17 q2 2 2 -3 l0 -5 l23 11 q5 3 8 3 Z"></path></symbol><symbol id="tw" viewBox="0 -128 1024 1024"><path d="M308 696.55 l141 0 q18 -1 18 -1.5 q0 -0.5 1 -10.5 l0 -67 q1 -13 1 -15 q2 -10 9 -18.5 q7 -8.5 17 -13.5 q4 -2 7.5 -3 q3.5 -1 9.5 -1 q30 -1 44 25 q4 6 4.5 15.5 q0.5 9.5 0.5 44.5 l0 45 l160 0 l-12 -177 q-2 -22 -2 -20 q0 0 -10 -1 l-72 0 l0 -19 l70 -1 q9 0 10.5 -1 q1.5 -1 7.5 -6 l21 -19 q13 -12 11 -12 q-2 0 -11 4 q-17 6 -34 7 q-14 2 -32.5 -2 q-18.5 -4 -35.5 -11 l-21 -8 l-8 4 q-29 14 -90 14 q-16 0 -28 -1 q-12 -1 -24.5 -2.5 q-12.5 -1.5 -21 -4 q-8.5 -2.5 -16.5 -6.5 l-9 -4 l-22 8 q-28 12 -52.5 13.5 q-24.5 1.5 -50.5 -7.5 q-10 -4 -7.5 -1 q2.5 3 18.5 17 q16 14 20 17 q1 1 9 1 l75 1 l0 19 l-77 0 q-6 1 -5 2 l-6 94 q-6 81 -7 97 l-1 5 ZM536 517.55 l-43 0 l0 -54 l43 0 l0 27 l0 27 ZM311 440.55 q9 1 25 0.5 q16 -0.5 26 -2.5 q18 -4 39 -13 l12 -5 l9 4 q9 4 17 6.5 q8 2.5 21 3.5 q27 4 56.5 4 q29.5 0 55.5 -5 q9 -1 18 -4 q9 -3 15 -6 l5 -3 l36 13 l14 4 q7 2 12.5 2.5 q5.5 0.5 18.5 0.5 q17 1 25.5 -1 q8.5 -2 21 -7 q12.5 -5 11 -6 q-1.5 -1 -18.5 -1 q-31 0 -50 -5 q-12 -2 -10 -5.5 q2 -3.5 27 -22.5 q29 -22 27.5 -22.5 q-1.5 -0.5 -7.5 1.5 q-16 7 -36 8 q-16 0 -31 -3 q-15 -3 -31 -10 q-10 -4 -16.5 -4.5 q-6.5 -0.5 -20.5 3.5 q-17 4 -29 5.5 q-12 1.5 -30 2.5 q-22 0 -41.5 -2 q-19.5 -2 -40 -7.5 q-20.5 -5.5 -28.5 -0.5 q-5 3 -16 6.5 q-11 3.5 -21 6.5 q-6 2 -11.5 2.5 q-5.5 0.5 -17 0.5 q-11.5 0 -19 -1.5 q-7.5 -1.5 -18.5 -5.5 l-7 -2 q-1 0 -1 1 l8 7 l49 37 l-4 2 q-6 2 -16 4 q-10 2 -19.5 3.5 q-9.5 1.5 -24 1.5 q-14.5 0 -18.5 -2 q-2 0 -1 2 q1 2 12 6.5 q11 4.5 23 7.5 ZM352 370.55 q14 -1 28.5 -4.5 q14.5 -3.5 31.5 -10.5 q8 -4 10 -4 q2 0 11 4 q15 6 33 8.5 q18 2.5 45 2.5 q58 1 83 -11 q7 -4 9.5 -4 q2.5 0 13.5 5 q20 8 35 11.5 q15 3.5 30 2.5 l11 -1 l9 -2 q9 -2 18 -6 q9 -4 9.5 -5.5 q0.5 -1.5 -3.5 -1.5 q-24 4 -53 -2 q-33 -7 -66 -27 q-33 -20 -56 -45 q-12 -14 -16.5 -22.5 q-4.5 -8.5 -4.5 -14.5 q0 -6 -1 -8 q-1 -2 0 -4.5 q1 -2.5 -0.5 -5 q-1.5 -2.5 1 -7.5 q2.5 -5 2 -11 q-0.5 -6 -2.5 -10 q-5 -6 -15 -6.5 q-10 -0.5 -17 4.5 q-2 2 -3 4 q-1 2 -1 6 q0 7 1.5 11.5 q1.5 4.5 1.5 6 q0 1.5 -1 3.5 q-1 2 0 5 q1 3 0 7 q-1 4 -1 7.5 q0 3.5 -4 11 q-4 7.5 -9 14.5 q-8 11 -22 23.5 q-14 12.5 -28 22.5 q-65 43 -124 38 l-12 -1 q-2 0 -1 1 q1 1 9 5 q8 4 15.5 6 q7.5 2 13.5 3 l20 1 Z"></path></symbol><symbol id="xync" viewBox="0 -128 1024 1024"><path d="M452 567.93 q6 2 15 2 q20 1 34 -12 q5 0 6 -19.5 q1 -19.5 1 -128.5 l0 -138 l-2 -4 q-3 -4 -9 -9 q-6 -5 -12 -8 q-14 -7 -29 -6 q-15 1 -28 9 q-6 4 -11 9 q-5 5 -7 8 q-4 10 -7 30 q-3 20 -3 39 q0 22 2 56 q2 34 5 61 q3 27 8 55 q5 28 8 35 q3 7 11.5 13 q8.5 6 17.5 8 ZM544 568.93 q5 1 14 1 q9 0 15 -2 q9 -2 17.5 -8 q8.5 -6 11.5 -12 l5 -21 q12 -61 16.5 -120.5 q4.5 -59.5 0.5 -97.5 q-2 -12 -4.5 -24 q-2.5 -12 -4 -15 q-1.5 -3 -6.5 -7 q-33 -29 -69 -11 q-8 4 -14.5 10 q-6.5 6 -7.5 10 q-1 4 -1 141 l1 137 l6 7 q10 9 20 12 ZM366 567.93 q23 5 41 -10 q5 -4 5 -9.5 q0 -5.5 -3.5 -24 q-3.5 -18.5 -6 -38 q-2.5 -19.5 -5.5 -49.5 q-4 -35 -5 -52 q-1 -17 -1 -35 q0 -21 1.5 -37 q1.5 -16 5.5 -31 q2 -11 2 -13 q0 -2 -5 -5.5 q-5 -3.5 -13 -7.5 q-17 -8 -35 -5.5 q-18 2.5 -32 16.5 q-8 7 -13 17.5 q-5 10.5 -8 26.5 q-2 11 -2.5 34 q-0.5 23 0.5 40 q4 41 11.5 75.5 q7.5 34.5 17.5 58.5 q18 42 46 49 l-1 0 ZM638 567.93 q5 1 13.5 0.5 q8.5 -0.5 13.5 -2.5 q34 -12 53 -90 q11 -43 15 -88.5 q4 -45.5 0 -72.5 q-6 -31 -22 -48 q-14 -13 -31.5 -16 q-17.5 -3 -35.5 5 q-7 3 -12 6.5 q-5 3.5 -5.5 6 q-0.5 2.5 0.5 9.5 q5 21 6.5 41 q1.5 20 1.5 44 q-1 40 -6 83 q-5 43 -12 79 q-4 17 -3.5 23 q0.5 6 4.5 9.5 q4 3.5 9.5 6.5 q5.5 3 10.5 4 ZM513 261.93 l5 -5 q9 -9 20 -14 l5 -3 l-1 -9 q0 -10 -2 -14.5 q-2 -4.5 -6.5 -5.5 q-4.5 -1 -20.5 -1 l-20 0 l-3 3 q-6 5 -6 20 l0 7 l8 5 l7 5 q4 3 7 6 l7 6 Z"></path></symbol><symbol id="tj" viewBox="0 -128 1024 1024"><path d="M267 658 q0 1 21 1 l23 0 l75 -47 q7 -4 7 -3 q3 1 9 5 l7 4 l0 5 q-2 13 10 15 q3 0 4.5 -0.5 q1.5 -0.5 5 -4.5 q3.5 -4 5 -4 q1.5 0 10.5 3 l9 3 l0 4 q0 3 1.5 6.5 q1.5 3.5 3.5 5 q2 1.5 7 1.5 q5 0 7.5 -3 q2.5 -3 3 -6.5 q0.5 -3.5 3.5 -2.5 l20 2 l1 5 q2 10 11 10 q5 0 7 -2 q2 -2 3.5 -5.5 q1.5 -3.5 1.5 -5.5 q0 -2 9 -3 l11 -1 q2 -1 3 3 q4 9 12 9 q4 0 6 -1 q5 -3 5 -11 l0 -5 l22 -7 l1 3 q5 6 11 6.5 q6 0.5 9 -4.5 q3 -5 1 -12 q-1 -2 0.5 -3 q1.5 -1 7 -4 q5.5 -3 7.5 -4 q2 -1 4 0 l13 7 l64 41 l43 1 q7 0 6.5 -1 q-0.5 -1 -10.5 -8 l-93 -58 l14 -13 l4 2 q5 3 10 2 q5 -1 7.5 -7 q2.5 -6 -2.5 -12 q-2 -2 -1.5 -4 q0.5 -2 6.5 -9.5 q6 -7.5 7.5 -7 q1.5 0.5 5.5 1.5 q9 1 12.5 -6 q3.5 -7 -4.5 -15 l-3 -3 l9 -20 l6 1 q4 0 5.5 -0.5 q1.5 -0.5 3.5 -2.5 q4 -4 3 -9.5 q-1 -5.5 -7 -9.5 q-3 -1 -3 -3.5 q0 -2.5 2 -10.5 l2 -9 l10 -2 q4 -2 5.5 -6.5 q1.5 -4.5 -0.5 -8.5 q-1 -2 -4.5 -4.5 q-3.5 -2.5 -5.5 -2.5 q-2 0 -2 -11.5 q0 -11.5 1.5 -11.5 q1.5 0 5.5 -2 q7 -3 6.5 -11 q-0.5 -8 -11.5 -10 q-5 -1 -5 -3 l-4 -19 q0 -1 3 -3 q7 -3 7 -10 q0 -5 -2 -8 q-2 -3 -10 -3 l-6 -1 l-9 -19 l3 -3 q5 -5 4.5 -10.5 q-0.5 -5.5 -4.5 -8.5 q-2 -1 -6.5 -1 q-4.5 0 -6.5 1.5 q-2 1.5 -8 -6.5 q-6 -8 -6.5 -10 q-0.5 -2 1.5 -4 q5 -7 3 -12 q-5 -11 -17 -6 l-5 3 l-16 -15 q0 -1 1.5 -4 q1.5 -3 1.5 -7 q0 -4 -3 -7 q-7 -6 -16 0 q-4 3 -5 3 l-18 -10 l1 -4 q2 -8 -3 -12.5 q-5 -4.5 -11 -3.5 q-2 1 -6 5 l-4 4 l-21 -6 l0 -6 q1 -9 -8 -11.5 q-9 -2.5 -14 9.5 q-2 4 -5 3 l-9 -2 q-7 0 -8.5 -1 q-1.5 -1 -1.5 -4 q-2 -10 -12 -10 q-5 0 -7.5 3 q-2.5 3 -3.5 7 l-1 4 l-10 2 q-11 1 -12 0 l-2 -4 q-5 -9 -13 -7 q-8 2 -9 12 l0 5 l-20 7 q-2 0 -3 -3 q-3 -6 -10 -7 q-3 0 -6.5 2 q-3.5 2 -3.5 4 l-1 14 l-18 11 l-4 -3 q-8 -7 -15 -2 q-7 5 -3 16 l2 3 l-16 15 l-5 -3 q-8 -4 -13 1 q-9 8 -1 18 l2 2 l-6 9 q-8 10 -9 8 q-10 -4 -15 1 q-8 8 1 18 l4 3 l-9 20 l-6 0 q-6 0 -9.5 3 q-3.5 3 -3.5 7.5 q0 4.5 4 7.5 l5 5 q2 0 2 2 l-4 20 l-5 0 q-11 2 -11 12 q0 5 2.5 7.5 q2.5 2.5 6.5 3.5 l4 1 l0 12 q0 12 -2 11.5 q-2 -0.5 -5.5 1.5 q-3.5 2 -4.5 4 q-1 2 -1 6 q0 4 1.5 7 q1.5 3 10.5 4 l4 1 l2 11 q2 9 2 10 l-4 3 q-12 8 -3 18 q2 2 3.5 2.5 q1.5 0.5 5.5 0.5 l6 -1 l9 20 l-4 4 q-7 6 -4 13.5 q3 7.5 12 6.5 l7 -1 q1 0 8 8 l6 9 l-2 2 q-7 9 0 17 q6 5 15 1 l3 -2 l6 5 q7 6 6.5 8 q-0.5 2 -10.5 7 l-78 51 q-12 7 -12 8 ZM549 603 q-11 2 -27.5 2.5 q-16.5 0.5 -26.5 -0.5 q-35 -4 -57 -14 q-7 -4 -8 -5 q3 -3 29 -19 q26 -16 35 -21 q4 -2 7 -2.5 q3 -0.5 11 -0.5 q11 0 17 3 q6 3 32.5 19 q26.5 16 32.5 20 q1 2 -12 8.5 q-13 6.5 -33 9.5 ZM633 561 q-9 8 -11 9 q-6 -3 -41.5 -26 q-35.5 -23 -43.5 -28 q-3 -4 -6 -10 l-3 -7 l-2 -103 q0 -13 -1 -14 q-1 -1 -13 0 l-13 1 q-1 0 -1 16 l0 85 q-1 13 -1 15 q-3 10 -11 17 q-8 7 -42 28.5 q-34 21.5 -41 24.5 q-5 -1 -18.5 -14 q-13.5 -13 -23.5 -27 q-22 -31 -30 -68.5 q-8 -37.5 -1 -73.5 q6 -28 21.5 -55 q15.5 -27 36.5 -47 q39 -37 96.5 -45.5 q57.5 -8.5 108.5 16.5 q34 16 58.5 44 q24.5 28 36.5 64 q18 55 4 106.5 q-14 51.5 -59 91.5 Z"></path></symbol><symbol id="close" viewBox="0 -128 1024 1024"><path d="M150 22 q-150 150 -150 362 q0 212 150 362 q150 150 362 150 q212 0 362 -150 q150 -150 150 -362 q0 -212 -150 -362 q-150 -150 -362 -150 q-212 0 -362 150 ZM720 544 q10 10 10 24 q0 14 -10 24 q-10 10 -24 10 q-14 0 -24 -10 l-160 -160 l-160 160 q-10 10 -24 10 q-14 0 -24 -10 q-10 -10 -10 -24 q0 -14 10 -24 l160 -160 l-160 -160 q-10 -10 -10 -24 q0 -14 10 -24 q10 -10 24 -10 q14 0 24 10 l160 160 l160 -160 q10 -10 24 -10 q14 0 24 10 q10 10 10 24 q0 14 -10 24 l-160 160 l160 160 Z"></path></symbol><symbol id="uniF102" viewBox="0 -128 1024 1024"><path d="M421 475 q37 37 91 37 q54 0 91 -37 q37 -37 37 -91 q0 -54 -37 -91 q-37 -37 -91 -37 q-54 0 -91 37 q-37 37 -37 91 q0 54 37 91 ZM421 859 q37 37 91 37 q54 0 91 -37 q37 -37 37 -91 q0 -54 -37 -91 q-37 -37 -91 -37 q-54 0 -91 37 q-37 37 -37 91 q0 54 37 91 ZM421 91 q37 37 91 37 q54 0 91 -37 q37 -37 37 -91 q0 -54 -37 -91 q-37 -37 -91 -37 q-54 0 -91 37 q-37 37 -37 91 q0 54 37 91 Z"></path></symbol><symbol id="trash" viewBox="0 -128 1024 1024"><path d="M388 -128 l0 130 l-316 0 l0 220 l58 0 l66 674 l632 0 l66 -674 l58 0 l0 -220 l-316 0 l0 -130 l-248 0 ZM576 -68 l0 70 l-128 0 l0 -70 l128 0 ZM250 836 l-58 -614 l640 0 l-58 614 l-524 0 ZM892 162 l-760 0 l0 -100 l760 0 l0 100 ZM542 720 l0 -382 l-60 0 l0 382 l60 0 ZM624 720 l60 0 l18 -382 l-60 0 l-18 382 ZM322 338 l18 382 l60 0 l-18 -382 l-60 0 Z"></path></symbol><symbol id="uniF104" viewBox="0 -128 1024 1024"><path d="M268 42 q-22 0 -34 18 l-226 298 q-18 26 0 52 l224 298 q14 18 34 18 l714 0 q18 0 31 -13 q13 -13 13 -31 l0 -596 q0 -12 -5 -22 q-5 -10 -15 -16 q-10 -6 -22 -6 l-714 0 ZM760 452 q14 12 14 30 q0 18 -12 32 q-12 14 -30 14 q-18 0 -32 -12 q0 0 0 -2 l-70 -68 l-68 68 q-14 12 -32 12 q-18 0 -30 -14 q-28 -30 0 -60 l70 -68 l-70 -68 q-12 -14 -12 -32 q0 -18 14 -30 q30 -28 60 0 l68 68 l70 -68 q12 -14 30 -14 q18 0 31 13 q13 13 13 30 q0 17 -12 31 q0 2 -2 2 l-68 68 l68 68 Z"></path></symbol><symbol id="guanbishengyin" viewBox="0 -128 1024 1024"><path d="M804 -91.83 q0 -22 -20 -32 q-20 -10 -38 4 l-324 258 l382 384 l0 -614 ZM62 -117.83 q-10 -10 -25 -10 q-15 0 -26 11 q-11 11 -11 26 q0 15 10 25 l230 230 l-20 0 q-34 0 -56 28 q-18 18 -18 46 l0 292 q0 30 22 52 q22 22 52 22 l170 0 l356 284 q10 8 22 8 q8 0 16 -4 q20 -10 20 -32 l0 -132 l158 158 q10 10 25 10 q15 0 26 -11 q11 -11 11 -26 q0 -15 -10 -25 l-952 -952 Z"></path></symbol><symbol id="menu" viewBox="0 -128 1024 1024"><path d="M53 477 q39 39 94 39 q55 0 94 -39 q39 -39 39 -93 q0 -54 -39 -93 q-39 -39 -94 -39 q-55 0 -94 39 q-39 39 -39 93 q0 54 39 93 ZM372 356 q-12 0 -20 8 q-8 8 -8 20 q0 12 8 20 q8 8 20 8 l612 0 q10 0 18 -8 q8 -8 8 -20 q0 -8 -3 -14 q-3 -6 -10 -10 q-7 -4 -13 -4 l-612 0 ZM53 99 q39 39 94 39 q55 0 94 -39 q39 -39 39 -94 q0 -55 -39 -94 q-39 -39 -94 -39 q-55 0 -94 39 q-39 39 -39 94 q0 55 39 94 ZM984 32 q10 0 18 -8 q8 -8 8 -19 q0 -11 -8 -19 q-8 -8 -18 -8 l-612 0 q-12 0 -20 8 q-8 8 -8 19 q0 11 8 19 q8 8 20 8 l612 0 ZM53 857 q39 39 94 39 q55 0 94 -39 q39 -39 39 -94 q0 -55 -39 -94 q-39 -39 -94 -39 q-55 0 -94 39 q-39 39 -39 94 q0 55 39 94 ZM372 736 q-12 0 -20 8 q-8 8 -8 19 q0 11 8 19 q8 8 20 8 l612 0 q10 0 18 -8 q8 -8 8 -18 q0 -8 -3 -14 q-3 -6 -10 -10 q-7 -4 -13 -4 l-612 0 Z"></path></symbol><symbol id="qushi" viewBox="0 -128 1024 1024"><path d="M978 811.33 l0 -536 l-96 0 l0 536 l96 0 ZM700 811.33 l0 -364 l-96 0 l0 364 l96 0 ZM422 811.33 l0 -182 l-98 0 l0 182 l98 0 ZM144 811.33 l0 -234 l-96 0 l0 234 l96 0 ZM935 -43.67 q-39 -3 -69 21 q-46 42 -28 102 l-116 82 q-26 -30 -66 -32 q-40 -2 -68 24 q-50 44 -26 108 l-106 90 q-22 -34 -60 -43 q-38 -9 -72 11 q-32 20 -42 56 l-92 -38 q-4 -40 -36 -63 q-32 -23 -71 -18 q-39 5 -63 37 q-24 32 -19 71 q5 39 37 63 q32 24 72 18 q60 -8 78 -68 l92 38 q4 38 36 63 q32 25 71 20 q39 -5 63 -37 q24 -32 20 -72 l114 -96 q28 28 68 28 q40 0 68 -30 q42 -40 22 -98 l114 -80 q26 30 65 33 q39 3 69 -23 q30 -26 33 -66 q3 -40 -23 -69 q-26 -29 -65 -32 Z"></path></symbol><symbol id="chouma" viewBox="0 -128 1024 1024"><path d="M1024 280 l-104 0 q-14 -56 -46 -110 l72 -74 l-146 -148 l-72 74 q-52 -30 -112 -46 l0 -104 l-208 0 l0 104 q-56 14 -110 46 l-74 -72 l-148 146 l74 72 q-30 52 -46 112 l-104 0 l0 208 l104 0 q14 56 46 110 l-72 74 l146 146 l74 -72 q50 30 110 46 l0 104 l208 0 l0 -104 q56 -14 110 -46 l74 72 l148 -146 l-74 -74 q30 -50 46 -110 l104 0 l0 -208 ZM320 576 q-80 -80 -80 -192 q0 -112 80 -192 q80 -80 192 -80 q112 0 192 80 q80 80 80 192 q0 112 -80 192 q-80 80 -192 80 q-112 0 -192 -80 ZM616 458 q0 -42 -31 -73 q-31 -31 -73 -31 q-18 0 -31 -13 q-13 -13 -13 -31 q0 -18 13 -31 q13 -13 31 -13 q20 0 32 14 q20 22 42 2 q22 -20 2 -42 q-20 -20 -46 -28 l0 -20 q0 -14 -9 -22 q-9 -8 -21 -8 q-12 0 -21 8 q-9 8 -9 22 l0 20 q-20 6 -37 20 q-17 14 -27 35 q-10 21 -10 43 q0 44 31 74 q31 30 73 30 q12 0 22 6 q10 6 16 16 q6 10 6 22 q0 12 -6 22 q-6 10 -16 16 q-10 6 -22 6 q-18 0 -32 -14 q-20 -22 -42 -2 q-22 20 -2 42 q20 20 46 28 l0 22 q0 12 9 20 q9 8 21 8 q12 0 21 -8 q9 -8 9 -20 l0 -22 q32 -10 53 -37 q21 -27 21 -61 Z"></path></symbol><symbol id="back" viewBox="0 -128 1024 1024"><path d="M256 698 q60 64 146 64 l454 0 q70 0 119 -49 q49 -49 49 -119 l0 -420 q0 -70 -49 -119 q-49 -49 -119 -49 l-454 0 q-86 0 -146 64 l-232 254 q-24 26 -24 60 q0 34 24 58 l232 256 ZM294 104 q44 -46 108 -46 l454 0 q48 0 82 34 q34 34 34 82 l0 420 q0 48 -34 82 q-34 34 -82 34 l-454 0 q-64 0 -108 -46 l-234 -256 q-22 -24 0 -48 l234 -256 ZM472 520 q8 8 18 8 q10 0 18 -8 l100 -100 l100 100 q8 8 18 8 q10 0 18 -8 q18 -18 0 -36 l-100 -100 l100 -100 q18 -18 0 -36 q-18 -18 -36 0 l-100 100 l-100 -100 q-18 -18 -36 0 q-18 18 0 36 l100 100 l-100 100 q-18 18 0 36 Z"></path></symbol><symbol id="uniF10D" viewBox="0 -128 1024 1024"><path d="M750 328 q32 0 47 -28 q15 -28 -3 -54 l-242 -354 q-14 -20 -38 -20 q-24 0 -38 20 l-246 354 q-18 26 -3 54 q15 28 47 28 l476 0 ZM274 440 q-32 0 -47 28 q-15 28 3 54 l246 354 q14 20 38 20 q24 0 38 -20 l242 -354 q18 -26 3 -54 q-15 -28 -47 -28 l-476 0 Z"></path></symbol><symbol id="arrow-left" viewBox="0 -128 1024 1024"><path d="M796 -38 q18 -18 0 -36 l-46 -46 q-8 -8 -18 -8 q-10 0 -18 8 l-486 486 q-18 18 0 36 l486 486 q8 8 18 8 q10 0 18 -8 l46 -46 q18 -18 0 -36 l-422 -422 l422 -422 Z"></path></symbol><symbol id="guajiang" viewBox="0 -128 1024 1024"><path d="M1024 384 q0 -110 -54 -202 q-54 -92 -147 -146 q-93 -54 -201 -54 q-38 0 -74 6 q142 26 236 137 q94 111 94 258 q0 147 -94 259 q-94 112 -236 138 q36 6 74 6 q166 0 284 -118 q118 -118 118 -284 ZM780 384 q0 -162 -114 -276 q-114 -114 -276 -114 q-162 0 -276 114 q-114 114 -114 276 q0 162 114 276 q114 114 276 114 q106 0 196 -52 q90 -52 142 -142 q52 -90 52 -196 ZM468 596 q0 12 -8 20 q-8 8 -20 8 l-54 0 q-12 0 -20 -8 q-8 -8 -8 -20 l0 -324 l-34 16 q-12 8 -25 2 q-13 -6 -17 -20 l-10 -40 q-6 -22 14 -34 l92 -48 q6 -4 14 -4 l48 0 q12 0 20 8 q8 8 8 20 l0 424 Z"></path></symbol><symbol id="close" viewBox="0 -128 1024 1024"><path d="M1018 -28 q16 -16 0 -32 l-60 -60 q-6 -6 -16 -6 q-10 0 -16 6 l-414 414 l-414 -414 q-16 -16 -32 0 l-60 60 q-16 16 0 32 l414 414 l-414 414 q-16 16 0 32 l60 60 q6 6 16 6 q10 0 16 -6 l414 -414 l414 414 q6 6 16 6 q10 0 16 -6 l60 -60 q16 -16 0 -32 l-414 -414 l414 -414 Z"></path></symbol><symbol id="down" viewBox="0 -128 1024 1024"><path d="M512 640 l512 -512 l-1024 0 l512 512 Z"></path></symbol><symbol id="notice" viewBox="0 -128 1024 1024"><path d="M260 472 l430 0 l198 222 l0 -222 l136 0 l0 -570 l-764 0 l0 570 ZM206 526 l0 -338 l-206 0 l0 488 l118 0 l0 190 l168 -190 l368 0 l0 -130 l-20 -20 l-428 0 Z"></path></symbol><symbol id="yejian" viewBox="0 -128 1024 1024"><path d="M902 664.44 q-74 26 -154 26 q-200 0 -343 -143 q-143 -143 -143 -345 q0 -166 100 -298 q6 -6 1 -13 q-5 -7 -13 -5 q-158 52 -254 186 q-96 134 -96 300 q0 210 150 360 q150 150 360 150 q120 0 226 -52 q106 -52 178 -148 q6 -6 1 -13 q-5 -7 -13 -5 ZM726 120.44 l74 54 l-28 -88 l74 -54 l-92 0 l-28 -88 l-28 88 l-94 0 l76 54 l-30 88 l76 -54 ZM986 192.44 l-12 -36 l-12 36 l-38 0 l32 22 l-12 36 l30 -22 l32 22 l-12 -36 l30 -22 l-38 0 Z"></path></symbol><symbol id="voice" viewBox="0 -128 1024 1024"><path d="M0 196 l0 382 l172 0 l324 240 l14 12 q14 10 29 10 q15 0 15 -24 l0 -866 q0 -40 -52 0 l-330 246 l-172 0 ZM740 122 q-14 -12 -32 -12 q-18 0 -31 12 q-13 12 -13 30 q0 18 14 32 q84 84 84 202 q0 120 -84 204 q-14 12 -14 30 q0 18 13 31 q13 13 31 13 q18 0 32 -14 q108 -108 108 -264 q0 -154 -108 -264 ZM858 -16 q-14 -12 -32 -12 q-18 0 -31 13 q-13 13 -13 31 q0 18 14 30 q140 142 140 340 q0 200 -140 342 q-14 12 -14 31 q0 19 13 31 q13 12 31 12 q18 0 32 -12 q166 -168 166 -404 q0 -234 -166 -402 Z"></path></symbol><symbol id="jiesuanbaobiao" viewBox="0 -128 1024 1024"><path d="M170 -128 l0 366 l-72 0 l0 658 l512 0 l0 -74 l316 0 l0 -734 l-216 -216 l-540 0 ZM802 68 l-70 0 l0 -72 l70 72 ZM170 822 l0 -512 l366 0 l0 512 l-366 0 ZM610 750 l0 -512 l-366 0 l0 -292 l414 0 l0 194 l196 0 l0 610 l-244 0 ZM464 458 l0 -74 l-220 0 l0 74 l220 0 ZM316 604 l0 -74 l-72 0 l0 74 l72 0 ZM464 604 l0 -74 l-74 0 l0 74 l74 0 ZM316 750 l0 -74 l-72 0 l0 74 l72 0 ZM464 750 l0 -74 l-74 0 l0 74 l74 0 Z"></path></symbol><symbol id="lishikaijiang" viewBox="0 -128 1024 1024"><path d="M608 134 l0 -72 l-192 0 l0 72 l192 0 ZM202 -80 q-84 0 -143 59 q-59 59 -59 143 q0 84 59 143 q59 59 143 59 l66 0 q8 26 18 48 q38 88 90 136 q22 20 46 32 q-28 44 -12 94 l-76 0 l0 214 l356 0 l0 -214 l-76 0 q16 -50 -12 -94 q24 -12 46 -32 q52 -48 90 -136 q10 -22 18 -48 l66 0 q84 0 143 -59 q59 -59 59 -143 q0 -84 -59 -143 q-59 -59 -143 -59 l-620 0 ZM202 254 q-54 0 -92 -39 q-38 -39 -38 -93 q0 -54 38 -92 q38 -38 92 -38 l12 0 q4 142 34 262 l-46 0 ZM620 776 l-216 0 l0 -70 l216 0 l0 70 ZM512 562 q14 0 25 11 q11 11 11 26 q0 15 -11 25 q-11 10 -25 10 q-14 0 -25 -10 q-11 -10 -11 -25 q0 -15 11 -26 q11 -11 25 -11 ZM355 351 q-63 -141 -69 -359 l452 0 q-6 218 -69 359 q-63 141 -157 141 q-94 0 -157 -141 ZM776 254 q30 -120 34 -262 l12 0 q54 0 92 38 q38 38 38 92 q0 54 -38 93 q-38 39 -92 39 l-46 0 Z"></path></symbol><symbol id="guize" viewBox="0 -128 1024 1024"><path d="M884 228 q16 -10 30 -24 q44 -46 44 -111 q0 -65 -44 -111 q-48 -46 -113 -45 q-65 1 -109 45 q-14 14 -24 30 l-138 -140 l-248 248 l72 10 q28 4 48 24 q24 26 24 61 q0 35 -24 59 q-28 24 -62 23 q-34 -1 -58 -23 q-20 -20 -24 -48 l-10 -72 l-248 248 l140 138 q-16 10 -30 24 q-46 48 -45 112 q1 64 46 109 q45 45 109 46 q64 1 112 -45 q14 -14 24 -30 l138 140 l248 -248 l-72 -10 q-28 -4 -48 -24 q-24 -24 -24 -59 q0 -35 24 -61 q26 -24 61 -24 q35 0 59 24 q20 20 24 48 l10 72 l248 -248 l-140 -138 ZM794 444 q-46 -46 -110 -47 q-64 -1 -112 47 q-46 46 -46 111 q0 65 46 111 q12 12 28 22 l-106 106 l-178 -180 l-10 72 q-4 28 -24 48 q-26 24 -61 24 q-35 0 -59 -24 q-26 -28 -25 -62 q1 -34 25 -58 q20 -20 48 -24 l72 -10 l-180 -178 l106 -106 q10 16 22 28 q44 44 107 46 q63 2 115 -46 q48 -54 45 -117 q-3 -63 -45 -105 q-12 -12 -28 -22 l106 -106 l178 180 l10 -72 q4 -28 24 -48 q26 -26 61 -25 q35 1 59 25 q24 24 24 59 q0 35 -24 61 q-20 20 -48 24 l-72 10 l180 178 l-106 106 q-10 -16 -22 -28 Z"></path></symbol><symbol id="xiazhuxiangqing" viewBox="0 -128 1024 1024"><path d="M756 -34 l-120 0 q-8 -28 -26 -49 q-18 -21 -44 -33 q-26 -12 -54 -12 q-44 0 -78 26 q-34 26 -46 68 l-120 0 l0 68 l-140 0 l0 862 l768 0 l0 -862 l-140 0 l0 -68 ZM454 34 l0 -34 q0 -24 17 -41 q17 -17 41 -17 q24 0 41 17 q17 17 17 41 l0 34 l116 0 l0 70 l-348 0 l0 -70 l116 0 ZM198 826 l0 -722 l70 0 l0 70 l488 0 l0 -70 l70 0 l0 722 l-628 0 ZM546 466 l0 -70 l36 0 q30 0 58 10 l24 -66 q-40 -14 -82 -14 l-36 0 l0 -58 l-68 0 l0 58 l-36 0 q-44 0 -74 31 q-30 31 -30 74 q0 43 30 74 q30 31 74 31 l36 0 l0 70 l-36 0 q-30 0 -58 -10 l-24 64 q40 14 82 14 l36 0 l0 60 l68 0 l0 -60 l36 0 q44 0 74 -30 q30 -30 30 -74 q0 -44 -30 -74 q-30 -30 -74 -30 l-36 0 ZM442 466 q-14 0 -24 -11 q-10 -11 -10 -25 q0 -14 10 -24 q10 -10 24 -10 l36 0 l0 70 l-36 0 ZM546 606 l0 -70 l36 0 q14 0 24 10 q10 10 10 24 q0 14 -10 25 q-10 11 -24 11 l-36 0 Z"></path></symbol><symbol id="huanfu" viewBox="0 -128 1024 1024"><path d="M694 -118.91 q-26 -20 -50 4 q-48 46 -132 46 q-84 0 -132 -46 q-24 -24 -50 -4 l-312 218 q-24 16 -16 42 l50 194 q8 32 42 30 l108 -10 l0 502 q0 16 12 28 q12 12 28 12 l540 0 q16 0 28 -12 q12 -12 12 -28 l0 -502 l108 10 q34 2 42 -30 l50 -194 q8 -26 -16 -42 l-312 -218 ZM632 -12.91 q0 32 -16 59 q-16 27 -44 43 q-28 16 -60 16 q-50 0 -85 -35 q-35 -35 -35 -83 q56 24 120 24 q64 0 120 -24 ZM786 271.09 q-18 -2 -31 10 q-13 12 -13 30 l0 506 l-460 0 l0 -506 q0 -18 -13 -30 q-13 -12 -31 -10 l-116 10 l-36 -132 l226 -160 q2 82 60 139 q58 57 140 57 q82 0 140 -57 q58 -57 60 -139 l226 160 l-36 132 l-116 -10 Z"></path></symbol><symbol id="notic" viewBox="0 -128 1024 1024"><path d="M422 166 l-360 0 q-16 0 -28 12 q-12 12 -12 28 l0 354 q0 16 12 28 q12 12 28 12 l130 0 q-12 76 24 144 q44 88 138 118 q36 12 74 12 q74 0 136 -43 q62 -43 88 -113 l290 148 q26 12 43 -3 q17 -15 17 -33 l0 -896 q2 -16 -16 -31 q-18 -15 -44 -5 l-520 268 ZM386 248 l0 270 l-282 0 l0 -270 l282 0 ZM576 684 q-18 62 -76 91 q-58 29 -120 10 q-62 -19 -92 -77 q-26 -52 -12 -108 l146 0 l154 84 ZM466 532 l0 -298 l454 -232 l0 762 l-454 -232 Z"></path></symbol><symbol id="pc" viewBox="0 -128 1024 1024"><path d="M76 -24 q-30 0 -53 22 q-23 22 -23 54 l0 564 q0 32 23 55 q23 23 53 23 l192 0 l-38 28 q-22 18 -13 44 q9 26 37 26 l516 0 q28 0 37 -26 q9 -26 -13 -44 l-38 -28 l192 0 q30 0 53 -23 q23 -23 23 -55 l0 -564 q0 -32 -23 -54 q-23 -22 -53 -22 l-872 0 ZM106 588 l0 -508 l812 0 l0 508 l0 0 l-812 0 Z"></path></symbol><symbol id="favorite" viewBox="0 -128 1024 1024"><path d="M942 42 q-84 -84 -202 -84 q-118 0 -202 84 l-26 26 l-26 -26 q-84 -84 -202 -84 q-118 0 -202 84 q-82 82 -82 197 q0 115 80 205 q102 112 402 356 q12 10 28 10 l2 0 q16 0 30 -10 q300 -244 402 -356 q80 -90 80 -205 q0 -115 -82 -197 ZM876 384 q-84 92 -364 324 q-280 -232 -364 -324 q-56 -64 -57 -143 q-1 -79 55 -135 q58 -58 139 -58 q81 0 137 58 l58 56 q10 10 24 12 q24 6 40 -12 l58 -56 q56 -58 137 -58 q81 0 139 58 q56 56 55 135 q-1 79 -57 143 Z"></path></symbol></defs></svg>