<svg id="Layer_1" data-name="Layer 1" xmlns="http://www.w3.org/2000/svg" xmlns:xlink="http://www.w3.org/1999/xlink" viewBox="0 0 18.33 21.18"><defs><style>.cls-1{fill:none;}.cls-2{clip-path:url(#clip-path);}</style><clipPath id="clip-path" transform="translate(-1.91 -0.35)"><path class="cls-1" d="M8.94,19a11.92,11.92,0,0,1-1.68-1.1,24.13,24.13,0,0,1-2.62-2.54s.11,0,0-.17-.2-.08-.36-.36S4,14.36,4,14.36s.16,0,.1-.21-.32-.25-.4-.39a2.6,2.6,0,0,1-.18-.47.18.18,0,0,0,.09-.19c0-.15-.22-.12-.35-.39S3,11.59,2.86,11.25a8,8,0,0,1,0-2.34,3.52,3.52,0,0,1,.53-1.4c.37-.42,1-1.17,1.05-1.22s.33-.32.26-.17a6.7,6.7,0,0,0-.52.9c0,.23-.3,1.29-.3,1.54a8.4,8.4,0,0,0,.37,1.82,3,3,0,0,0,1.16,1.18,2.08,2.08,0,0,0,1.26,0,1,1,0,0,0,.44-.62c0-.22.08-.35,0-.48s-.44-.35-.55-.26-.41.42-.41.42a1.26,1.26,0,0,1,0-.79,6.14,6.14,0,0,1,.53-1.34,5.1,5.1,0,0,1,.65-.66A2.8,2.8,0,0,1,8,7.51c.15,0,0,.35-.06.45a3.53,3.53,0,0,0-.16,1A1.39,1.39,0,0,0,8,9.69c.16.16.26.32.58.29a1.23,1.23,0,0,0,.77-.28,3,3,0,0,0,.71-1c.07-.32,0-8.2,0-8.2s.13.77.23,1.27a16.3,16.3,0,0,0,.6,1.68,10.8,10.8,0,0,0,.87,1.47c.19.25.87.8,1,.92s.29.44.37.55.24.47.2.46a4.56,4.56,0,0,0-.39-.25c-.11,0-.37-.16-.54-.08a.82.82,0,0,0-.34.23,1.53,1.53,0,0,0-.21.34,1.93,1.93,0,0,0-.09.51,3.91,3.91,0,0,0,.12.89,4,4,0,0,0,.52,1,1.45,1.45,0,0,0,.43.38c.2.11.21.21.54.18a.74.74,0,0,0,.58-.32A1,1,0,0,0,14.16,9a3.19,3.19,0,0,0,0-.62A1.83,1.83,0,0,0,14,7.8c-.08-.13-.21-.29-.16-.29a.69.69,0,0,1,.36,0,2,2,0,0,1,.69.42,6.33,6.33,0,0,1,.7,1,5.88,5.88,0,0,1,.25.68c0,.18,0,.55.07.64s0,.35-.05.25-.07-.21-.22-.26a.69.69,0,0,0-.42,0c-.07,0-.25.17-.28.27a1.3,1.3,0,0,0,0,.56c.07.14.18.35.33.41a1.45,1.45,0,0,0,.56.17,1.95,1.95,0,0,0,1.5-.62,4.75,4.75,0,0,0,.59-1,5.52,5.52,0,0,0,.25-1.58,4.31,4.31,0,0,0-.25-1.25c-.08-.19-.34-.74-.41-.86S17.1,6,17.18,6s.36.3.46.39a9.63,9.63,0,0,1,.8.9,4.11,4.11,0,0,1,.63,1.33,11.05,11.05,0,0,1,.1,1.85,11.67,11.67,0,0,1-.32,1.8,2.7,2.7,0,0,0-.16.48,2.55,2.55,0,0,1-.28.21,1.11,1.11,0,0,0-.11.25l.15.14-.22.47L18,14l-.12.22.15.15a5.85,5.85,0,0,1-.37.61.65.65,0,0,0-.22.15c-.06.09,0,.18-.08.25s-.95,1.18-1.13,1.4A15.86,15.86,0,0,1,14.56,18a13.45,13.45,0,0,1-1.44.92c0-.07.19-.28.34-.48a3.79,3.79,0,0,0,.52-1,4,4,0,0,0,0-1.19,1.53,1.53,0,0,0-.49-.55,1.32,1.32,0,0,0-.83,0,4.8,4.8,0,0,0-1,.71,13.78,13.78,0,0,0-.82,1.18,4.93,4.93,0,0,0-.46,1.23c0,.32-.24.89-.25,1.1s.08,1.08.08,1.14,0,.27-.22-.13a7.43,7.43,0,0,1-.57-1A8.11,8.11,0,0,1,9,18.36a15.12,15.12,0,0,1,0-1.65c.06-.37.21-1,.19-1.06s-.33,0-.5,0a.91.91,0,0,0-.68.77,5.49,5.49,0,0,0,0,.81,1.71,1.71,0,0,0,.19.63,5.1,5.1,0,0,0,.37.57C8.65,18.56,9,19,8.94,19Z"/></clipPath></defs><title>SC broodwar</title><g class="cls-2"><image width="900" height="1040" transform="scale(0.02)" xlink:href="../../../../../Downloads/dowload 2018/icon/kisspng-starcraft-ii-legacy-of-the-void-starcraft-brood-anubis-5ace0fa877e041.103383601523453864491.jpg"/></g></svg>