<svg id="Layer_1" data-name="Layer 1" xmlns="http://www.w3.org/2000/svg" xmlns:xlink="http://www.w3.org/1999/xlink" viewBox="0 0 24.75 24.75"><defs><style>.cls-1{fill:none;}.cls-2{clip-path:url(#clip-path);}</style><clipPath id="clip-path" transform="translate(1.43 1.68)"><path class="cls-1" d="M5.45,19.51s-1.38-2-1.5-2.19a9.86,9.86,0,0,1-1.09-2,9.32,9.32,0,0,0-.22-2.67c-.27-.41-.29-.29-.19-.68a1.11,1.11,0,0,0-.06-.82c-.09-.18.14-.62-.17-.85s-.69-.56-.62-.79.5-.5.25-.88a2.44,2.44,0,0,1-.46-.91c0-.19.35-.44.39-.8a14.15,14.15,0,0,0,.11-1.77,8.12,8.12,0,0,0-.38-1.81,1.43,1.43,0,0,1,0-1c.15-.23.17-.48.46-.44s1.46,0,1.87,0S4.24,1.62,5,1.73s1,0,1.19.2.08.25.83.5a6.18,6.18,0,0,0,2,.4c.52,0,1.27,0,2,0s1.08,0,1.9,0,1.29,0,1.62-.17A9.9,9.9,0,0,1,16.32,2a6.26,6.26,0,0,1,1.23-.25,8,8,0,0,1,1.69,0c.42.07,1,.25,1,.46s-.21.67-.21,1,.57,1,.53,1.57-.23,1-.25,1.31a6.7,6.7,0,0,1-.07,1.29,9.11,9.11,0,0,0-.1,1.46c0,.23-.25.81-.31,1.27a10.62,10.62,0,0,0-.07,1.46,2.83,2.83,0,0,1-.18,1.08c-.13.25-.42.69-.38.86a12.45,12.45,0,0,1-.12,1.39,2.1,2.1,0,0,1-.4,1A8.56,8.56,0,0,0,18,17.23c-.25.47-.79,1-.79,1.14s.31.29.21.44a4.53,4.53,0,0,1-.77.7c-.25.15-.44-.24-1.07-.56a6.46,6.46,0,0,0-2.73-1.12,14.37,14.37,0,0,0-3.56,0,11.26,11.26,0,0,0-1.81.65C7.05,18.75,5.91,19.56,5.45,19.51Z"/></clipPath></defs><title>warcraft3</title><g class="cls-2"><image width="225" height="225" transform="scale(0.11)" xlink:href="../../../../../Downloads/dowload 2018/icon/WC3.jpg"/></g></svg>