<?xml version="1.0" standalone="no"?><!DOCTYPE svg PUBLIC "-//W3C//DTD SVG 1.1//EN" "http://www.w3.org/Graphics/SVG/1.1/DTD/svg11.dtd"><svg t="1541405971278" class="icon" style="" viewBox="0 0 1024 1024" version="1.1" xmlns="http://www.w3.org/2000/svg" p-id="1294" xmlns:xlink="http://www.w3.org/1999/xlink" width="128" height="128"><defs><style type="text/css"></style></defs><path d="M298.666667 142.498133m-73.900835 42.666667a85.333333 85.333333 0 1 0 147.801669-85.333333 85.333333 85.333333 0 1 0-147.801669 85.333333Z" p-id="1295" fill="#8a8a8a"></path><path d="M142.498133 298.666667m-42.666666 73.900834a85.333333 85.333333 0 1 0 85.333333-147.801669 85.333333 85.333333 0 1 0-85.333333 147.801669Z" p-id="1296" fill="#8a8a8a"></path><path d="M85.333333 512m0 85.333333a85.333333 85.333333 0 1 0 0-170.666666 85.333333 85.333333 0 1 0 0 170.666666Z" p-id="1297" fill="#8a8a8a"></path><path d="M142.498133 725.333333m42.666667 73.900835a85.333333 85.333333 0 1 0-85.333333-147.801669 85.333333 85.333333 0 1 0 85.333333 147.801669Z" p-id="1298" fill="#8a8a8a"></path><path d="M298.666667 881.501867m73.900834 42.666666a85.333333 85.333333 0 1 0-147.801669-85.333333 85.333333 85.333333 0 1 0 147.801669 85.333333Z" p-id="1299" fill="#8a8a8a"></path><path d="M512 938.666667m-85.333333 0a85.333333 85.333333 0 1 0 170.666666 0 85.333333 85.333333 0 1 0-170.666666 0Z" p-id="1300" fill="#8a8a8a"></path><path d="M725.333333 881.501867m-73.900834 42.666666a85.333333 85.333333 0 1 0 147.801669-85.333333 85.333333 85.333333 0 1 0-147.801669 85.333333Z" p-id="1301" fill="#8a8a8a"></path><path d="M881.501867 725.333333m-42.666667 73.900835a85.333333 85.333333 0 1 0 85.333333-147.801669 85.333333 85.333333 0 1 0-85.333333 147.801669Z" p-id="1302" fill="#8a8a8a"></path><path d="M938.666667 512m0 85.333333a85.333333 85.333333 0 1 0 0-170.666666 85.333333 85.333333 0 1 0 0 170.666666Z" p-id="1303" fill="#8a8a8a"></path><path d="M881.501867 298.666667m42.666666 73.900834a85.333333 85.333333 0 1 0-85.333333-147.801669 85.333333 85.333333 0 1 0 85.333333 147.801669Z" p-id="1304" fill="#8a8a8a"></path><path d="M725.333333 142.498133m73.900835 42.666667a85.333333 85.333333 0 1 0-147.801669-85.333333 85.333333 85.333333 0 1 0 147.801669 85.333333Z" p-id="1305" fill="#8a8a8a"></path><path d="M512 85.333333m-85.333333 0a85.333333 85.333333 0 1 0 170.666666 0 85.333333 85.333333 0 1 0-170.666666 0Z" p-id="1306" fill="#8a8a8a"></path></svg>